{
.appVersion = "1213";
DisplayStrings = (
"eftdnldano/Placeholder nn/Placeholder o/Placeholder o\012nnnn/Placeholder/Placeholder/Placeholder/Placeholder nnnn/Placeholder n\012nnn/Placeholder/Placeholder/Placeholder nnnll/Placeholder ll\012ooo/Placeholder/Placeholder/Placeholder ooo/l.ss01/l.ss01/l.ss01/Placeholder/l.ss01/l.ss01/l.ss01",
"aldfnv/Placeholder \012es/k.ss01 s",
"HNO/Placeholder H/Placeholder O\012o/Placeholder ooon/Placeholder hnn\012IIIIII/Placeholder IIIIII",
"vjyn/Placeholder o"
);
copyright = "Copyright (c) 2013 by Jacques Le Bailly. All rights reserved.";
customParameters = (
{
name = description;
value = "Copyright (c) 2013 by Jacques Le Bailly. All rights reserved.";
},
{
name = trademark;
value = "NPOjlbTwoP is a trademark of Jacques Le Bailly.";
},
{
name = vendorID;
value = bvf;
},
{
name = panose;
value = (
2,
0,
5,
0,
3,
0,
0,
2,
0,
4
);
},
{
name = unicodeRanges;
value = (
0
);
},
{
name = codePageRanges;
value = (
1252
);
},
{
name = glyphOrder;
value = (
A,
Aogonek,
AE,
B,
C,
D,
Eth,
E,
Eogonek,
F,
G,
H,
Hbar,
I,
Iogonek,
I_J.loclNLD,
J,
K,
L,
Lcaron,
Ldot,
Lslash,
M,
N,
Eng,
O,
Oslash,
Ohorn,
Oogonek,
OE,
P,
Thorn,
Q,
R,
S,
Germandbls,
Schwa,
T,
Tbar,
U,
Uogonek,
Uhorn,
V,
W,
X,
Y,
Z,
a,
aogonek,
ae,
b,
c,
d,
dcaron,
dcroat,
eth,
e,
eogonek,
f,
g,
h,
hbar,
i,
idotless,
iogonek,
i_j.loclNLD,
j,
jdotless,
k,
kgreenlandic,
l,
ldot,
lcaron,
lslash,
m,
n,
eng,
o,
oogonek,
oslash,
ohorn,
oe,
p,
thorn,
q,
r,
s,
germandbls,
schwa,
t,
tbar,
tcaron,
u,
uogonek,
uhorn,
v,
w,
x,
y,
z
);
}
);
date = "2013-08-08 11:44:06 +0000";
disablesNiceNames = 1;
familyName = LV_Kalli;
fontMaster = (
{
alignmentZones = (
"{720, 20}",
"{630, 20}",
"{497, 20}",
"{0, -20}",
"{-180, -20}"
);
ascender = 720;
capHeight = 630;
customParameters = (
{
name = typoAscender;
value = 621;
},
{
name = typoDescender;
value = -207;
},
{
name = typoLineGap;
value = 0;
},
{
name = winAscent;
value = 690;
},
{
name = winDescent;
value = 151;
},
{
name = hheaAscender;
value = 621;

glyphs = (
{
color = 3;
glyphname = A;
lastChange = "2019-02-15 23:06:23 +0000";
layers = (
{
background = {
paths = (
{
closed = 1;
nodes = (
"129 0 LINE",
"334 430 LINE",
"296 430 LINE",
"505 0 LINE",
"674 0 LINE",
"363 630 LINE",
"275 630 LINE",
"-44 0 LINE"
);
},
{
closed = 1;
nodes = (
"511 92 LINE",
"456 228 LINE",
"182 228 LINE",
"127 92 LINE"
);
}
);
};
layerId = "2510F216-D89B-43CC-ACD1-209C5F77631B";
paths = (
{
closed = 1;
nodes = (
"96 0 LINE",
"351 542 LINE",
"307 541 LINE",
"559 0 LINE",
"649 0 LINE",
"353 629 LINE",
"307 629 LINE",
"3 0 LINE"
);
},
{
closed = 1;
nodes = (
"520 120 LINE",
"494 196 LINE",
"139 196 LINE",
"114 120 LINE"
);
}
);
width = 656;
},
{
background = {
paths = (
{
closed = 1;
nodes = (
"1060 0 LINE",
"1326 589 LINE",
"1270 591 LINE",
"1529 0 LINE",
"1688 0 LINE",
"1365 710 LINE",
"1234 710 LINE",
"901 0 LINE"
);
},
{
closed = 1;
nodes = (
"1539 129 LINE",
"1477 259 LINE",
"1122 259 LINE",
"1060 129 LINE"
);
},
{
closed = 1;
nodes = (
"96 0 LINE",
"370 644 LINE",
"338 644 LINE",
"613 0 LINE",
"698 0 LINE",
"390 710 LINE",
"319 710 LINE",
"11 0 LINE"
);
},
{
closed = 1;
nodes = (
"574 188 LINE",
"556 257 LINE",
"155 257 LINE",
"139 188 LINE"
);
}
);
};
layerId = "5839A0EB-CD27-4B31-AA48-098F33CA22E9";
paths = (
{
closed = 1;
nodes = (
"167 0 LINE",
"372 430 LINE",
"334 430 LINE",
"543 0 LINE",
"712 0 LINE",
"401 630 LINE",
"313 630 LINE",
"-6 0 LINE"
);
},
{
closed = 1;
nodes = (
"549 92 LINE",
"494 228 LINE",
"220 228 LINE",
"165 92 LINE"
);
}
);
width = 710;
}
);
unicode = 0041;
},
{
color = 3;
glyphname = D;
lastChange = "2019-02-15 21:48:41 +0000";
layers = (
{
background = {
paths = (
{
closed = 1;
nodes = (
"519 361 LINE",
"169 361 LINE",
"169 630 LINE",
"85 630 LINE",
"85 0 LINE",
"169 0 LINE",
"169 283 LINE",
"519 283 LINE",
"519 0 LINE",
"603 0 LINE",
"603 630 LINE",
"519 630 LINE"
);
},
{
closed = 1;
nodes = (
"183 636 OFFCURVE",
"55 500 OFFCURVE",
"55 316 CURVE SMOOTH",
"55 290 LINE SMOOTH",
"55 115 OFFCURVE",
"167 -5 OFFCURVE",
"336 -5 CURVE SMOOTH",
"505 -5 OFFCURVE",
"633 131 OFFCURVE",
"633 315 CURVE SMOOTH",
"633 341 LINE SMOOTH",
"633 516 OFFCURVE",
"521 636 OFFCURVE",
"352 636 CURVE SMOOTH"
);
},
{
closed = 1;
nodes = (
"217 75 OFFCURVE",
"142 160 OFFCURVE",
"142 315 CURVE SMOOTH",
"142 462 OFFCURVE",
"227 559 OFFCURVE",
"345 558 CURVE SMOOTH",
"471 557 OFFCURVE",
"546 471 OFFCURVE",
"546 316 CURVE SMOOTH",
"546 169 OFFCURVE",
"461 73 OFFCURVE",
"343 74 CURVE SMOOTH"
);
}
);
};
layerId = "2510F216-D89B-43CC-ACD1-209C5F77631B";
paths = (
{
closed = 1;
nodes = (
"300 0 LINE SMOOTH",
"506 0 OFFCURVE",
"633 121 OFFCURVE",
"633 309 CURVE SMOOTH",
"633 334 LINE SMOOTH",
"633 527 OFFCURVE",
"507 630 OFFCURVE",
"273 630 CURVE SMOOTH",
"85 630 LINE",
"85 0 LINE"
);
},
{
closed = 1;
nodes = (
"169 555 LINE",
"268 555 LINE SMOOTH",
"461 555 OFFCURVE",
"546 483 OFFCURVE",
"546 314 CURVE SMOOTH",
"546 160 OFFCURVE",
"455 76 OFFCURVE",
"296 76 CURVE SMOOTH",
"169 76 LINE"
);
}
);
width = 697;
},
{
background = {
paths = (
{
closed = 1;
nodes = (
"170 637 OFFCURVE",
"35 494 OFFCURVE",
"35 315 CURVE SMOOTH",
"35 291 LINE SMOOTH",
"35 114 OFFCURVE",
"155 -6 OFFCURVE",
"332 -6 CURVE SMOOTH",
"520 -6 OFFCURVE",
"655 138 OFFCURVE",
"655 316 CURVE SMOOTH",
"655 340 LINE SMOOTH",
"655 517 OFFCURVE",
"534 637 OFFCURVE",
"358 637 CURVE SMOOTH"
);
},
{
closed = 1;
nodes = (
"252 135 OFFCURVE",
"197 200 OFFCURVE",
"197 315 CURVE SMOOTH",
"197 428 OFFCURVE",
"256 497 OFFCURVE",
"352 497 CURVE SMOOTH",
"438 497 OFFCURVE",
"493 431 OFFCURVE",
"493 316 CURVE SMOOTH",
"493 203 OFFCURVE",
"434 135 OFFCURVE",
"345 135 CURVE SMOOTH"
);
},
{
closed = 1;
nodes = (
"470 398 LINE",
"219 398 LINE",
"219 630 LINE",
"63 630 LINE",
"63 0 LINE",
"219 0 LINE",
"219 255 LINE",
"470 255 LINE",
"470 0 LINE",
"627 0 LINE",
"627 630 LINE",
"470 630 LINE"
);
}
);
};
layerId = "5839A0EB-CD27-4B31-AA48-098F33CA22E9";
paths = (
{
closed = 1;
nodes = (
"302 0 LINE SMOOTH",
"520 0 OFFCURVE",
"655 138 OFFCURVE",
"655 316 CURVE SMOOTH",
"655 340 LINE SMOOTH",
"655 517 OFFCURVE",
"534 630 OFFCURVE",
"272 630 CURVE SMOOTH",
"71 630 LINE",
"71 0 LINE"
);
},
{
closed = 1;
nodes = (
"227 495 LINE",
"284 495 LINE SMOOTH",
"418 495 OFFCURVE",
"493 441 OFFCURVE",
"493 306 CURVE SMOOTH",
"493 200 OFFCURVE",
"431 136 OFFCURVE",
"317 136 CURVE SMOOTH",
"227 136 LINE"
);
}
);
width = 701;
}
);
leftMetricsKey = H;
rightMetricsKey = O;
unicode = 0044;
},
{
color = 3;
glyphname = H;
lastChange = "2019-02-17 23:03:32 +0000";
layers = (
{
background = {
paths = (
{
closed = 1;
nodes = (
"697 0 LINE",
"697 710 LINE",
"614 710 LINE",
"614 0 LINE"
);
},
{
closed = 1;
nodes = (
"168 0 LINE",
"168 710 LINE",
"85 710 LINE",
"85 0 LINE"
);
},
{
closed = 1;
nodes = (
"643 325 LINE",
"643 395 LINE",
"148 395 LINE",
"148 325 LINE"
);
}
);
};
layerId = "2510F216-D89B-43CC-ACD1-209C5F77631B";
paths = (
{
closed = 1;
nodes = (
"603 0 LINE",
"603 630 LINE",
"519 630 LINE",
"519 0 LINE"
);
},
{
closed = 1;
nodes = (
"169 0 LINE",
"169 630 LINE",
"85 630 LINE",
"85 0 LINE"
);
},
{
closed = 1;
nodes = (
"555 283 LINE",
"555 360 LINE",
"141 360 LINE",
"141 283 LINE"
);
}
);
width = 688;
},
{
background = {
paths = (
{
closed = 1;
nodes = (
"704 0 LINE",
"704 710 LINE",
"548 710 LINE",
"548 0 LINE"
);
},
{
closed = 1;
nodes = (
"227 0 LINE",
"227 710 LINE",
"71 710 LINE",
"71 0 LINE"
);
},
{
closed = 1;
nodes = (
"644 290 LINE",
"644 426 LINE",
"119 426 LINE",
"119 290 LINE"
);
}
);
};
layerId = "5839A0EB-CD27-4B31-AA48-098F33CA22E9";
paths = (
{
closed = 1;
nodes = (
"635 0 LINE",
"635 630 LINE",
"479 630 LINE",
"479 0 LINE"
);
},
{
closed = 1;
nodes = (
"227 0 LINE",
"227 630 LINE",
"71 630 LINE",
"71 0 LINE"
);
},
{
closed = 1;
nodes = (
"581 251 LINE",
"581 394 LINE",
"114 394 LINE",
"114 251 LINE"
);
}
);
width = 706;
}
);
rightMetricsKey = "=|";
unicode = 0048;
},
{
color = 3;
glyphname = I;
lastChange = "2019-02-15 17:05:10 +0000";
layers = (
{
layerId = "2510F216-D89B-43CC-ACD1-209C5F77631B";
paths = (
{
closed = 1;
nodes = (
"169 0 LINE",
"169 630 LINE",
"85 630 LINE",
"85 0 LINE"
);
}
);
width = 254;
},
{
layerId = "5839A0EB-CD27-4B31-AA48-098F33CA22E9";
paths = (
{
closed = 1;
nodes = (
"227 0 LINE",
"227 630 LINE",
"71 630 LINE",
"71 0 LINE"
);
}
);
width = 298;
}
);
leftMetricsKey = H;
rightMetricsKey = "=|";
unicode = 0049;
},
{
color = 3;
glyphname = K;
lastChange = "2019-02-17 19:46:49 +0000";
layers = (
{
background = {
paths = (
{
closed = 1;
nodes = (
"869 0 LINE",
"869 630 LINE",
"785 630 LINE",
"785 0 LINE"
);
},
{
closed = 1;
nodes = (
"1225 -5 OFFCURVE",
"1249 0 OFFCURVE",
"1268 8 CURVE",
"1275 80 LINE",
"1261 72 OFFCURVE",
"1236 68 OFFCURVE",
"1216 68 CURVE SMOOTH",
"1167 68 OFFCURVE",
"1138 92 OFFCURVE",
"1093 148 CURVE SMOOTH",
"928 354 LINE",
"931 300 LINE",
"1265 630 LINE",
"1160 630 LINE",
"862 335 LINE",
"861 310 LINE",
"1049 76 LINE SMOOTH",
"1092 22 OFFCURVE",
"1140 -1 OFFCURVE",
"1201 -4 CURVE SMOOTH"
);
},
{
closed = 1;
nodes = (
"169 0 LINE",
"169 630 LINE",
"13 630 LINE",
"13 0 LINE"
);
},
{
closed = 1;
nodes = (
"518 -6 OFFCURVE",
"558 -3 OFFCURVE",
"584 7 CURVE",
"607 130 LINE",
"590 125 OFFCURVE",
"562 120 OFFCURVE",
"544 120 CURVE SMOOTH",
"502 120 OFFCURVE",
"467 137 OFFCURVE",
"429 185 CURVE SMOOTH",
"294 354 LINE",
"286 295 LINE",
"585 630 LINE",
"403 630 LINE",
"143 340 LINE",
"139 309 LINE",
"327 74 LINE SMOOTH",
"372 18 OFFCURVE",
"427 -6 OFFCURVE",
"492 -6 CURVE SMOOTH"
);
}
);
};
layerId = "2510F216-D89B-43CC-ACD1-209C5F77631B";
paths = (
{
closed = 1;
nodes = (
"169 0 LINE",
"169 630 LINE",
"85 630 LINE",
"85 0 LINE"
);
},
{
closed = 1;
nodes = (
"525 -5 OFFCURVE",
"549 0 OFFCURVE",
"568 8 CURVE",
"575 80 LINE",
"561 72 OFFCURVE",
"536 68 OFFCURVE",
"516 68 CURVE SMOOTH",
"467 68 OFFCURVE",
"439 92 OFFCURVE",
"394 148 CURVE SMOOTH",
"229 354 LINE",
"230 300 LINE",
"531 630 LINE",
"429 630 LINE",
"162 335 LINE",
"161 310 LINE",
"349 76 LINE SMOOTH",
"392 22 OFFCURVE",
"440 -1 OFFCURVE",
"501 -4 CURVE SMOOTH"
);
}
);
width = 566;
},
{
background = {
paths = (
{
closed = 1;
nodes = (
"227 0 LINE",
"227 630 LINE",
"71 630 LINE",
"71 0 LINE"
);
},
{
closed = 1;
nodes = (
"576 -6 OFFCURVE",
"616 -2 OFFCURVE",
"642 9 CURVE",
"665 129 LINE",
"648 124 OFFCURVE",
"620 120 OFFCURVE",
"602 120 CURVE SMOOTH",
"560 120 OFFCURVE",
"525 137 OFFCURVE",
"487 185 CURVE SMOOTH",
"352 354 LINE",
"344 295 LINE",
"643 630 LINE",
"461 630 LINE",
"201 340 LINE",
"197 309 LINE",
"385 74 LINE SMOOTH",
"430 18 OFFCURVE",
"485 -6 OFFCURVE",
"550 -6 CURVE SMOOTH"
);
}
);
};
layerId = "5839A0EB-CD27-4B31-AA48-098F33CA22E9";
paths = (
{
closed = 1;
nodes = (
"227 0 LINE",
"227 630 LINE",
"71 630 LINE",
"71 0 LINE"
);
},
{
closed = 1;
nodes = (
"576 -6 OFFCURVE",
"616 -3 OFFCURVE",
"642 7 CURVE",
"665 130 LINE",
"648 125 OFFCURVE",
"620 120 OFFCURVE",
"602 120 CURVE SMOOTH",
"560 120 OFFCURVE",
"525 137 OFFCURVE",
"487 185 CURVE SMOOTH",
"352 354 LINE",
"344 295 LINE",
"643 630 LINE",
"461 630 LINE",
"201 340 LINE",
"197 309 LINE",
"385 74 LINE SMOOTH",
"430 18 OFFCURVE",
"485 -6 OFFCURVE",
"550 -6 CURVE SMOOTH"
);
}
);
width = 653;
}
);
leftMetricsKey = H;
unicode = 004B;
},
{
color = 3;
glyphname = L;
lastChange = "2019-02-15 23:08:20 +0000";
layers = (
{
background = {
anchors = (
{
name = bottom;
position = "{330, 0}";
},
{
name = center;
position = "{357, 357}";
},
{
name = top;
position = "{141, 712}";
},
{
name = topright;
position = "{259, 712}";
}
);
paths = (
{
closed = 1;
nodes = (
"540 0 LINE",
"540 48 LINE",
"168 48 LINE",
"168 712 LINE",
"114 712 LINE",
"114 0 LINE"
);
}
);
};
layerId = "2510F216-D89B-43CC-ACD1-209C5F77631B";
paths = (
{
closed = 1;
nodes = (
"456 0 LINE",
"489 78 LINE",
"169 78 LINE",
"169 630 LINE",
"85 630 LINE",
"85 0 LINE"
);
}
);
width = 487;
},
{
background = {
anchors = (
{
name = bottom;
position = "{311, 0}";
},
{
name = center;
position = "{393, 357}";
},
{
name = top;
position = "{145, 712}";
},
{
name = topright;
position = "{318, 712}";
}
);
paths = (
{
closed = 1;
nodes = (
"542 0 LINE",
"542 132 LINE",
"227 132 LINE",
"227 712 LINE",
"65 712 LINE",
"65 0 LINE"
);
}
);
};
layerId = "5839A0EB-CD27-4B31-AA48-098F33CA22E9";
paths = (
{
closed = 1;
nodes = (
"475 0 LINE",
"537 143 LINE",
"227 143 LINE",
"227 630 LINE",
"71 630 LINE",
"71 0 LINE"
);
}
);
width = 517;
}
);
leftMetricsKey = H;
unicode = 004C;
},
{
color = 3;
glyphname = M;
lastChange = "2019-02-19 09:49:36 +0000";
layers = (
{
background = {
paths = (
{
closed = 1;
nodes = (
"165 0 LINE",
"164 499 LINE",
"129 497 LINE",
"383 0 LINE",
"444 0 LINE",
"689 497 LINE",
"665 495 LINE",
"665 0 LINE",
"740 0 LINE",
"740 630 LINE",
"675 630 LINE",
"398 67 LINE",
"433 67 LINE",
"150 630 LINE",
"85 630 LINE",
"85 0 LINE"
);
}
);
};
layerId = "2510F216-D89B-43CC-ACD1-209C5F77631B";
paths = (
{
closed = 1;
nodes = (
"163 0 LINE",
"162 499 LINE",
"129 497 LINE",
"385 0 LINE",
"442 0 LINE",
"689 497 LINE",
"667 495 LINE",
"667 0 LINE",
"740 0 LINE",
"740 630 LINE",
"677 630 LINE",
"398 67 LINE",
"433 67 LINE",
"148 630 LINE",
"85 630 LINE",
"85 0 LINE"
);
}
);
width = 825;
},
{
background = {
paths = (
{
closed = 1;
nodes = (
"1172 106 LINE",
"1288 106 LINE",
"979 630 LINE",
"881 630 LINE",
"881 0 LINE",
"1035 0 LINE",
"1035 416 LINE",
"953 408 LINE",
"1187 0 LINE",
"1285 0 LINE",
"1648 630 LINE",
"1463 630 LINE"
);
},
{
closed = 1;
nodes = (
"1437 0 LINE",
"1591 0 LINE",
"1591 610 LINE",
"1542 610 LINE",
"1437 520 LINE"
);
},
{
closed = 1;
nodes = (
"81 630 LINE",
"81 0 LINE",
"235 0 LINE",
"235 520 LINE",
"209 630 LINE"
);
},
{
closed = 1;
nodes = (
"81 630 LINE",
"387 0 LINE",
"485 0 LINE",
"719 408 LINE",
"637 416 LINE",
"637 0 LINE",
"791 0 LINE",
"791 630 LINE",
"693 630 LINE",
"384 106 LINE",
"500 106 LINE",
"209 630 LINE"
);
}
);
};
guideLines = (
{
position = "{730, 262}";
}
);
layerId = "5839A0EB-CD27-4B31-AA48-098F33CA22E9";
paths = (
{
closed = 1;
nodes = (
"217 0 LINE",
"217 416 LINE",
"139 408 LINE",
"391 0 LINE",
"474 0 LINE",
"699 408 LINE",
"647 416 LINE",
"647 0 LINE",
"784 0 LINE",
"784 630 LINE",
"670 630 LINE",
"402 153 LINE",
"471 153 LINE",
"185 630 LINE",
"71 630 LINE",
"71 0 LINE"
);
}
);
width = 855;
}
);
leftKerningGroup = H;
leftMetricsKey = H;
rightKerningGroup = H;
rightMetricsKey = H;
unicode = 004D;
},
{
color = 3;
glyphname = N;
lastChange = "2019-02-19 09:50:57 +0000";
layers = (
{
background = {
paths = (
{
closed = 1;
nodes = (
"593 0 LINE",
"593 630 LINE",
"509 630 LINE",
"509 0 LINE"
);
},
{
closed = 1;
nodes = (
"169 0 LINE",
"169 630 LINE",
"85 630 LINE",
"85 0 LINE"
);
},
{
closed = 1;
nodes = (
"545 283 LINE",
"545 360 LINE",
"131 360 LINE",
"131 283 LINE"
);
}
);
};
hints = (
{
horizontal = 1;
place = "{0, 21}";
target = up;
type = BottomGhost;
},
{
horizontal = 1;
place = "{629, -20}";
target = down;
type = TopGhost;
},
{
place = "{84, 77}";
type = Stem;
},
{
place = "{469, 77}";
type = Stem;
}
);
layerId = "2510F216-D89B-43CC-ACD1-209C5F77631B";
paths = (
{
closed = 1;
nodes = (
"166 0 LINE",
"166 585 LINE",
"85 605 LINE",
"85 0 LINE"
);
},
{
closed = 1;
nodes = (
"515 78 LINE",
"570 72 LINE",
"139 630 LINE",
"34 630 LINE",
"518 0 LINE",
"593 0 LINE",
"593 630 LINE",
"515 630 LINE"
);
}
);
width = 678;
},
{
hints = (
{
horizontal = 1;
place = "{0, 21}";
target = up;
type = BottomGhost;
},
{
horizontal = 1;
place = "{629, -20}";
target = down;
type = TopGhost;
},
{
place = "{62, 141}";
type = Stem;
},
{
place = "{444, 141}";
type = Stem;
}
);
layerId = "5839A0EB-CD27-4B31-AA48-098F33CA22E9";
paths = (
{
closed = 1;
nodes = (
"221 0 LINE",
"221 574 LINE",
"71 594 LINE",
"71 0 LINE"
);
},
{
closed = 1;
nodes = (
"482 228 LINE",
"541 206 LINE",
"206 630 LINE",
"1 630 LINE",
"500 0 LINE",
"625 0 LINE",
"625 630 LINE",
"482 630 LINE"
);
}
);
width = 696;
}
);
note = N;
rightMetricsKey = H;
unicode = 004E;
},
{
color = 3;
glyphname = O;
lastChange = "2019-02-15 17:05:04 +0000";
layers = (
{
background = {
paths = (
{
closed = 1;
nodes = (
"612 0 LINE",
"612 630 LINE",
"528 630 LINE",
"528 0 LINE"
);
},
{
closed = 1;
nodes = (
"178 0 LINE",
"178 630 LINE",
"94 630 LINE",
"94 0 LINE"
);
},
{
closed = 1;
nodes = (
"564 283 LINE",
"564 361 LINE",
"150 361 LINE",
"150 283 LINE"
);
}
);
};
guideLines = (
{
angle = 90;
position = "{741, 356}";
},
{
angle = 90;
position = "{804, 356}";
}
);
layerId = "2510F216-D89B-43CC-ACD1-209C5F77631B";
paths = (
{
closed = 1;
nodes = (
"192 636 OFFCURVE",
"64 500 OFFCURVE",
"64 316 CURVE SMOOTH",
"64 290 LINE SMOOTH",
"64 115 OFFCURVE",
"176 -5 OFFCURVE",
"345 -5 CURVE SMOOTH",
"514 -5 OFFCURVE",
"642 131 OFFCURVE",
"642 315 CURVE SMOOTH",
"642 341 LINE SMOOTH",
"642 516 OFFCURVE",
"530 636 OFFCURVE",
"361 636 CURVE SMOOTH"
);
},
{
closed = 1;
nodes = (
"226 75 OFFCURVE",
"151 160 OFFCURVE",
"151 315 CURVE SMOOTH",
"151 462 OFFCURVE",
"236 559 OFFCURVE",
"354 558 CURVE SMOOTH",
"480 557 OFFCURVE",
"555 471 OFFCURVE",
"555 316 CURVE SMOOTH",
"555 169 OFFCURVE",
"470 73 OFFCURVE",
"352 74 CURVE SMOOTH"
);
}
);
width = 706;
},
{
background = {
paths = (
{
closed = 1;
nodes = (
"530 -6 OFFCURVE",
"664 137 OFFCURVE",
"664 316 CURVE SMOOTH",
"664 340 LINE SMOOTH",
"664 517 OFFCURVE",
"545 637 OFFCURVE",
"362 637 CURVE SMOOTH",
"179 637 OFFCURVE",
"48 503 OFFCURVE",
"48 316 CURVE SMOOTH",
"48 290 LINE SMOOTH",
"48 114 OFFCURVE",
"168 -6 OFFCURVE",
"343 -6 CURVE SMOOTH"
);
},
{
closed = 1;
nodes = (
"449 496 OFFCURVE",
"504 431 OFFCURVE",
"504 316 CURVE SMOOTH",
"504 203 OFFCURVE",
"445 134 OFFCURVE",
"349 134 CURVE SMOOTH",
"259 134 OFFCURVE",
"208 199 OFFCURVE",
"208 313 CURVE SMOOTH",
"208 427 OFFCURVE",
"264 496 OFFCURVE",
"356 496 CURVE SMOOTH"
);
}
);
};
layerId = "5839A0EB-CD27-4B31-AA48-098F33CA22E9";
paths = (
{
closed = 1;
nodes = (
"181 637 OFFCURVE",
"46 494 OFFCURVE",
"46 315 CURVE SMOOTH",
"46 291 LINE SMOOTH",
"46 114 OFFCURVE",
"166 -6 OFFCURVE",
"343 -6 CURVE SMOOTH",
"531 -6 OFFCURVE",
"666 138 OFFCURVE",
"666 316 CURVE SMOOTH",
"666 340 LINE SMOOTH",
"666 517 OFFCURVE",
"545 637 OFFCURVE",
"369 637 CURVE SMOOTH"
);
},
{
closed = 1;
nodes = (
"263 135 OFFCURVE",
"208 200 OFFCURVE",
"208 315 CURVE SMOOTH",
"208 428 OFFCURVE",
"267 497 OFFCURVE",
"363 497 CURVE SMOOTH",
"449 497 OFFCURVE",
"504 431 OFFCURVE",
"504 316 CURVE SMOOTH",
"504 203 OFFCURVE",
"445 135 OFFCURVE",
"356 135 CURVE SMOOTH"
);
}
);
width = 712;
}
);
rightMetricsKey = "=|";
unicode = 004F;
},
{
color = 3;
glyphname = a;
lastChange = "2019-02-14 20:57:51 +0000";
layers = (
{
background = {
paths = (
{
closed = 1;
nodes = (
"412 496 OFFCURVE",
"360 501 OFFCURVE",
"321 501 CURVE SMOOTH",
"152 501 OFFCURVE",
"49 406 OFFCURVE",
"49 248 CURVE SMOOTH",
"49 228 LINE SMOOTH",
"49 85 OFFCURVE",
"133 -4 OFFCURVE",
"269 -4 CURVE SMOOTH",
"312 -4 OFFCURVE",
"333 3 OFFCURVE",
"358 28 CURVE SMOOTH",
"378 49 LINE",
"378 0 LINE",
"453 0 LINE",
"453 489 LINE"
);
},
{
closed = 1;
nodes = (
"133 365 OFFCURVE",
"190 427 OFFCURVE",
"303 427 CURVE SMOOTH",
"331 427 OFFCURVE",
"350 425 OFFCURVE",
"376 422 CURVE",
"376 79 LINE",
"353 72 OFFCURVE",
"329 69 OFFCURVE",
"305 69 CURVE SMOOTH",
"181 69 OFFCURVE",
"133 119 OFFCURVE",
"133 248 CURVE SMOOTH"
);
}
);
};
hints = (
{
horizontal = 1;
place = "{-4, 74}";
type = Stem;
},
{
horizontal = 1;
place = "{206, 79}";
type = Stem;
},
{
horizontal = 1;
place = "{425, 75}";
type = Stem;
},
{
place = "{55, 72}";
type = Stem;
},
{
place = "{333, 77}";
type = Stem;
},
{
horizontal = 1;
place = "{0, 21}";
target = up;
type = BottomGhost;
}
);
layerId = "2510F216-D89B-43CC-ACD1-209C5F77631B";
paths = (
{
closed = 1;
nodes = (
"412 496 OFFCURVE",
"360 501 OFFCURVE",
"321 501 CURVE SMOOTH",
"153 501 OFFCURVE",
"50 406 OFFCURVE",
"50 248 CURVE SMOOTH",
"50 228 LINE SMOOTH",
"50 85 OFFCURVE",
"134 -4 OFFCURVE",
"269 -4 CURVE SMOOTH",
"312 -4 OFFCURVE",
"333 3 OFFCURVE",
"358 28 CURVE SMOOTH",
"378 49 LINE",
"378 0 LINE",
"453 0 LINE",
"453 489 LINE"
);
},
{
closed = 1;
nodes = (
"133 365 OFFCURVE",
"190 427 OFFCURVE",
"303 427 CURVE SMOOTH",
"331 427 OFFCURVE",
"350 425 OFFCURVE",
"376 422 CURVE",
"376 79 LINE",
"353 72 OFFCURVE",
"329 69 OFFCURVE",
"305 69 CURVE SMOOTH",
"181 69 OFFCURVE",
"133 119 OFFCURVE",
"133 248 CURVE SMOOTH"
);
}
);
width = 523;
},
{
background = {
paths = (
{
closed = 1;
nodes = (
"459 512 OFFCURVE",
"394 518 OFFCURVE",
"349 518 CURVE SMOOTH",
"154 518 OFFCURVE",
"39 420 OFFCURVE",
"39 250 CURVE SMOOTH",
"39 229 LINE SMOOTH",
"39 87 OFFCURVE",
"127 -4 OFFCURVE",
"264 -4 CURVE SMOOTH",
"293 -4 OFFCURVE",
"318 6 OFFCURVE",
"339 26 CURVE SMOOTH",
"365 50 LINE",
"365 0 LINE",
"501 0 LINE",
"501 503 LINE"
);
},
{
closed = 1;
nodes = (
"191 348 OFFCURVE",
"234 396 OFFCURVE",
"312 396 CURVE SMOOTH",
"333 396 OFFCURVE",
"346 395 OFFCURVE",
"360 392 CURVE",
"360 123 LINE",
"343 119 OFFCURVE",
"330 118 OFFCURVE",
"315 118 CURVE SMOOTH",
"232 118 OFFCURVE",
"191 162 OFFCURVE",
"191 257 CURVE SMOOTH"
);
}
);
};
hints = (
{
horizontal = 1;
place = "{-4, 113}";
type = Stem;
},
{
horizontal = 1;
place = "{213, 96}";
type = Stem;
},
{
horizontal = 1;
place = "{392, 126}";
type = Stem;
},
{
place = "{30, 126}";
type = Stem;
},
{
place = "{297, 141}";
type = Stem;
},
{
horizontal = 1;
place = "{0, 21}";
target = up;
type = BottomGhost;
}
);
layerId = "5839A0EB-CD27-4B31-AA48-098F33CA22E9";
paths = (
{
closed = 1;
nodes = (
"458 512 OFFCURVE",
"392 518 OFFCURVE",
"341 518 CURVE SMOOTH",
"153 518 OFFCURVE",
"39 419 OFFCURVE",
"39 250 CURVE SMOOTH",
"39 238 LINE SMOOTH",
"39 91 OFFCURVE",
"124 -4 OFFCURVE",
"256 -4 CURVE SMOOTH",
"292 -4 OFFCURVE",
"318 5 OFFCURVE",
"340 26 CURVE SMOOTH",
"365 50 LINE",
"365 0 LINE",
"501 0 LINE",
"501 503 LINE"
);
},
{
closed = 1;
nodes = (
"191 348 OFFCURVE",
"234 396 OFFCURVE",
"320 396 CURVE SMOOTH",
"336 396 OFFCURVE",
"346 395 OFFCURVE",
"360 392 CURVE",
"360 122 LINE",
"341 119 OFFCURVE",
"329 118 OFFCURVE",
"315 118 CURVE SMOOTH",
"232 118 OFFCURVE",
"191 162 OFFCURVE",
"191 252 CURVE SMOOTH"
);
}
);
width = 564;
}
);
leftMetricsKey = o;
note = a;
rightMetricsKey = "=|n";
unicode = 0061;
},
{
color = 3;
glyphname = b;
lastChange = "2019-02-14 22:23:34 +0000";
layers = (
{
background = {
paths = (
{
closed = 1;
nodes = (
"100 660 LINE SMOOTH",
"95 660 OFFCURVE",
"90 655 OFFCURVE",
"90 650 CURVE SMOOTH",
"90 10 LINE SMOOTH",
"90 6 OFFCURVE",
"95 0 OFFCURVE",
"100 0 CURVE SMOOTH",
"227 0 LINE SMOOTH",
"394 0 OFFCURVE",
"489 70 OFFCURVE",
"489 231 CURVE SMOOTH",
"489 261 LINE SMOOTH",
"489 394 OFFCURVE",
"429 501 OFFCURVE",
"285 501 CURVE SMOOTH",
"230 501 OFFCURVE",
"210 492 OFFCURVE",
"199 481 CURVE SMOOTH",
"167 449 LINE",
"167 650 LINE SMOOTH",
"167 654 OFFCURVE",
"161 660 OFFCURVE",
"156 660 CURVE SMOOTH"
);
},
{
closed = 1;
nodes = (
"233 425 LINE SMOOTH",
"368 425 OFFCURVE",
"407 377 OFFCURVE",
"407 226 CURVE SMOOTH",
"406 76 LINE",
"167 76 LINE",
"167 425 LINE"
);
}
);
};
hints = (
{
horizontal = 1;
place = "{0, 76}";
type = Stem;
},
{
horizontal = 1;
place = "{425, 76}";
type = Stem;
},
{
horizontal = 1;
place = "{660, -20}";
target = down;
type = TopGhost;
},
{
place = "{84, 77}";
type = Stem;
},
{
place = "{401, 81}";
type = Stem;
}
);
layerId = "2510F216-D89B-43CC-ACD1-209C5F77631B";
paths = (
{
closed = 1;
nodes = (
"111 1 OFFCURVE",
"163 -4 OFFCURVE",
"202 -4 CURVE SMOOTH",
"370 -4 OFFCURVE",
"473 91 OFFCURVE",
"473 249 CURVE SMOOTH",
"473 269 LINE SMOOTH",
"473 412 OFFCURVE",
"389 501 OFFCURVE",
"254 501 CURVE SMOOTH",
"211 501 OFFCURVE",
"190 494 OFFCURVE",
"165 469 CURVE SMOOTH",
"114 415 LINE",
"147 433 LINE",
"147 720 LINE",
"70 720 LINE",
"70 8 LINE"
);
},
{
closed = 1;
nodes = (
"390 132 OFFCURVE",
"333 70 OFFCURVE",
"220 70 CURVE SMOOTH",
"192 70 OFFCURVE",
"173 72 OFFCURVE",
"147 75 CURVE",
"147 418 LINE",
"170 425 OFFCURVE",
"194 428 OFFCURVE",
"218 428 CURVE SMOOTH",
"342 428 OFFCURVE",
"390 378 OFFCURVE",
"390 249 CURVE SMOOTH"
);
}
);
width = 523;
},
{
background = {
paths = (
{
closed = 1;
nodes = (
"106 2 OFFCURVE",
"172 -4 OFFCURVE",
"223 -4 CURVE SMOOTH",
"411 -4 OFFCURVE",
"525 95 OFFCURVE",
"525 264 CURVE SMOOTH",
"525 276 LINE SMOOTH",
"525 423 OFFCURVE",
"440 518 OFFCURVE",
"308 518 CURVE SMOOTH",
"272 518 OFFCURVE",
"246 509 OFFCURVE",
"224 488 CURVE SMOOTH",
"199 464 LINE",
"199 514 LINE",
"63 514 LINE",
"63 11 LINE"
);
},
{
closed = 1;
nodes = (
"373 166 OFFCURVE",
"330 118 OFFCURVE",
"244 118 CURVE SMOOTH",
"228 118 OFFCURVE",
"218 119 OFFCURVE",
"204 122 CURVE",
"204 392 LINE",
"223 395 OFFCURVE",
"235 396 OFFCURVE",
"249 396 CURVE SMOOTH",
"332 396 OFFCURVE",
"373 352 OFFCURVE",
"373 262 CURVE SMOOTH"
);
}
);
};
hints = (
{
horizontal = 1;
place = "{0, 122}";
type = Stem;
},
{
horizontal = 1;
place = "{397, 122}";
type = Stem;
},
{
horizontal = 1;
place = "{669, -20}";
target = down;
type = TopGhost;
},
{
place = "{62, 141}";
type = Stem;
},
{
place = "{355, 149}";
type = Stem;
}
);
layerId = "5839A0EB-CD27-4B31-AA48-098F33CA22E9";
paths = (
{
closed = 1;
nodes = (
"106 2 OFFCURVE",
"172 -4 OFFCURVE",
"223 -4 CURVE SMOOTH",
"411 -4 OFFCURVE",
"525 95 OFFCURVE",
"525 264 CURVE SMOOTH",
"525 276 LINE SMOOTH",
"525 423 OFFCURVE",
"440 518 OFFCURVE",
"308 518 CURVE SMOOTH",
"272 518 OFFCURVE",
"246 509 OFFCURVE",
"224 488 CURVE SMOOTH",
"167 433 LINE",
"204 419 LINE",
"204 720 LINE",
"63 720 LINE",
"63 11 LINE"
);
},
{
closed = 1;
nodes = (
"373 166 OFFCURVE",
"330 118 OFFCURVE",
"244 118 CURVE SMOOTH",
"228 118 OFFCURVE",
"218 119 OFFCURVE",
"204 122 CURVE",
"204 392 LINE",
"223 395 OFFCURVE",
"235 396 OFFCURVE",
"249 396 CURVE SMOOTH",
"332 396 OFFCURVE",
"373 352 OFFCURVE",
"373 262 CURVE SMOOTH"
);
}
);
width = 564;
}
);
leftMetricsKey = h;
note = b;
rightMetricsKey = o;
unicode = 0062;
},
{
color = 3;
glyphname = c;
lastChange = "2019-02-14 22:23:34 +0000";
layers = (
{
background = {
paths = (
{
closed = 1;
nodes = (
"725 501 OFFCURVE",
"629 392 OFFCURVE",
"629 248 CURVE SMOOTH",
"629 228 LINE SMOOTH",
"629 86 OFFCURVE",
"725 -4 OFFCURVE",
"852 -4 CURVE SMOOTH",
"992 -4 OFFCURVE",
"1084 104 OFFCURVE",
"1084 248 CURVE SMOOTH",
"1084 268 LINE SMOOTH",
"1084 411 OFFCURVE",
"992 501 OFFCURVE",
"868 501 CURVE SMOOTH"
);
},
{
closed = 1;
nodes = (
"769 70 OFFCURVE",
"714 128 OFFCURVE",
"714 247 CURVE SMOOTH",
"714 362 OFFCURVE",
"774 426 OFFCURVE",
"863 426 CURVE SMOOTH",
"948 426 OFFCURVE",
"1001 368 OFFCURVE",
"1001 250 CURVE SMOOTH",
"1001 136 OFFCURVE",
"943 70 OFFCURVE",
"856 70 CURVE SMOOTH"
);
},
{
closed = 1;
nodes = (
"413 496 OFFCURVE",
"361 501 OFFCURVE",
"322 501 CURVE SMOOTH",
"153 501 OFFCURVE",
"50 406 OFFCURVE",
"50 248 CURVE SMOOTH",
"50 228 LINE SMOOTH",
"50 85 OFFCURVE",
"134 -4 OFFCURVE",
"270 -4 CURVE SMOOTH",
"313 -4 OFFCURVE",
"334 3 OFFCURVE",
"359 28 CURVE SMOOTH",
"379 49 LINE",
"379 0 LINE",
"454 0 LINE",
"454 489 LINE"
);
},
{
closed = 1;
nodes = (
"134 365 OFFCURVE",
"191 427 OFFCURVE",
"304 427 CURVE SMOOTH",
"332 427 OFFCURVE",
"351 425 OFFCURVE",
"377 422 CURVE",
"377 79 LINE",
"354 72 OFFCURVE",
"330 69 OFFCURVE",
"306 69 CURVE SMOOTH",
"182 69 OFFCURVE",
"134 119 OFFCURVE",
"134 248 CURVE SMOOTH"
);
}
);
};
layerId = "2510F216-D89B-43CC-ACD1-209C5F77631B";
paths = (
{
closed = 1;
nodes = (
"349 -4 OFFCURVE",
"392 7 OFFCURVE",
"414 19 CURVE",
"431 96 LINE",
"389 79 OFFCURVE",
"355 70 OFFCURVE",
"314 70 CURVE SMOOTH",
"189 70 OFFCURVE",
"134 128 OFFCURVE",
"134 247 CURVE SMOOTH",
"134 357 OFFCURVE",
"195 425 OFFCURVE",
"307 425 CURVE SMOOTH",
"355 425 OFFCURVE",
"389 417 OFFCURVE",
"431 402 CURVE",
"422 486 LINE",
"392 497 OFFCURVE",
"349 501 OFFCURVE",
"316 501 CURVE SMOOTH",
"145 501 OFFCURVE",
"50 392 OFFCURVE",
"50 248 CURVE SMOOTH",
"50 228 LINE SMOOTH",
"50 83 OFFCURVE",
"143 -4 OFFCURVE",
"291 -4 CURVE SMOOTH"
);
}
);
width = 433;
},
{
background = {
paths = (
{
closed = 1;
nodes = (
"347 -4 OFFCURVE",
"394 5 OFFCURVE",
"437 23 CURVE",
"458 147 LINE",
"409 130 OFFCURVE",
"365 122 OFFCURVE",
"329 122 CURVE SMOOTH",
"235 122 OFFCURVE",
"193 162 OFFCURVE",
"193 252 CURVE SMOOTH",
"193 347 OFFCURVE",
"241 395 OFFCURVE",
"333 395 CURVE SMOOTH",
"371 395 OFFCURVE",
"414 387 OFFCURVE",
"457 370 CURVE",
"448 503 LINE",
"412 513 OFFCURVE",
"367 518 OFFCURVE",
"328 518 CURVE SMOOTH",
"150 518 OFFCURVE",
"39 416 OFFCURVE",
"39 253 CURVE SMOOTH",
"39 241 LINE SMOOTH",
"39 83 OFFCURVE",
"133 -4 OFFCURVE",
"301 -4 CURVE SMOOTH"
);
}
);
};
layerId = "5839A0EB-CD27-4B31-AA48-098F33CA22E9";
paths = (
{
closed = 1;
nodes = (
"344 -4 OFFCURVE",
"389 5 OFFCURVE",
"432 23 CURVE",
"453 147 LINE",
"405 130 OFFCURVE",
"362 122 OFFCURVE",
"327 122 CURVE SMOOTH",
"234 122 OFFCURVE",
"193 162 OFFCURVE",
"193 252 CURVE SMOOTH",
"193 347 OFFCURVE",
"241 395 OFFCURVE",
"331 395 CURVE SMOOTH",
"367 395 OFFCURVE",
"410 386 OFFCURVE",
"452 370 CURVE",
"443 503 LINE",
"407 513 OFFCURVE",
"363 518 OFFCURVE",
"325 518 CURVE SMOOTH",
"149 518 OFFCURVE",
"39 416 OFFCURVE",
"39 253 CURVE SMOOTH",
"39 241 LINE SMOOTH",
"39 83 OFFCURVE",
"132 -4 OFFCURVE",
"298 -4 CURVE SMOOTH"
);
}
);
width = 466;
}
);
leftMetricsKey = o;
unicode = 0063;
},
{
color = 3;
glyphname = d;
lastChange = "2019-02-14 20:57:52 +0000";
layers = (
{
background = {
paths = (
{
closed = 1;
nodes = (
"412 496 OFFCURVE",
"360 501 OFFCURVE",
"321 501 CURVE SMOOTH",
"152 501 OFFCURVE",
"49 406 OFFCURVE",
"49 248 CURVE SMOOTH",
"49 228 LINE SMOOTH",
"49 85 OFFCURVE",
"133 -4 OFFCURVE",
"269 -4 CURVE SMOOTH",
"312 -4 OFFCURVE",
"333 3 OFFCURVE",
"358 28 CURVE SMOOTH",
"378 49 LINE",
"378 0 LINE",
"453 0 LINE",
"453 489 LINE"
);
},
{
closed = 1;
nodes = (
"133 365 OFFCURVE",
"190 427 OFFCURVE",
"303 427 CURVE SMOOTH",
"331 427 OFFCURVE",
"350 425 OFFCURVE",
"376 422 CURVE",
"376 79 LINE",
"353 72 OFFCURVE",
"329 69 OFFCURVE",
"305 69 CURVE SMOOTH",
"181 69 OFFCURVE",
"133 119 OFFCURVE",
"133 248 CURVE SMOOTH"
);
}
);
};
hints = (
{
horizontal = 1;
place = "{-4, 76}";
type = Stem;
},
{
horizontal = 1;
place = "{420, 77}";
type = Stem;
},
{
horizontal = 1;
place = "{671, -20}";
target = down;
type = TopGhost;
},
{
place = "{63, 81}";
type = Stem;
},
{
place = "{382, 77}";
type = Stem;
},
{
horizontal = 1;
place = "{0, 21}";
target = up;
type = BottomGhost;
}
);
layerId = "2510F216-D89B-43CC-ACD1-209C5F77631B";
paths = (
{
closed = 1;
nodes = (
"376 457 LINE",
"407 495 LINE",
"380 498 OFFCURVE",
"349 501 OFFCURVE",
"321 501 CURVE SMOOTH",
"153 501 OFFCURVE",
"50 406 OFFCURVE",
"50 248 CURVE SMOOTH",
"50 228 LINE SMOOTH",
"50 85 OFFCURVE",
"134 -4 OFFCURVE",
"269 -4 CURVE SMOOTH",
"312 -4 OFFCURVE",
"333 3 OFFCURVE",
"358 28 CURVE SMOOTH",
"378 49 LINE",
"378 0 LINE",
"453 0 LINE",
"453 720 LINE",
"376 720 LINE"
);
},
{
closed = 1;
nodes = (
"353 72 OFFCURVE",
"329 69 OFFCURVE",
"305 69 CURVE SMOOTH",
"181 69 OFFCURVE",
"133 119 OFFCURVE",
"133 248 CURVE SMOOTH",
"133 365 OFFCURVE",
"190 427 OFFCURVE",
"303 427 CURVE SMOOTH",
"331 427 OFFCURVE",
"350 425 OFFCURVE",
"376 422 CURVE",
"376 79 LINE"
);
}
);
width = 523;
},
{
background = {
paths = (
{
closed = 1;
nodes = (
"1030 671 LINE SMOOTH",
"1011 671 OFFCURVE",
"993 654 OFFCURVE",
"993 633 CURVE SMOOTH",
"993 514 LINE",
"952 514 LINE SMOOTH",
"799 514 OFFCURVE",
"693 434 OFFCURVE",
"693 262 CURVE SMOOTH",
"693 236 LINE SMOOTH",
"693 67 OFFCURVE",
"776 -4 OFFCURVE",
"894 -4 CURVE SMOOTH",
"935 -4 OFFCURVE",
"955 2 OFFCURVE",
"973 20 CURVE SMOOTH",
"998 45 LINE",
"998 36 LINE SMOOTH",
"998 17 OFFCURVE",
"1016 0 OFFCURVE",
"1035 0 CURVE SMOOTH",
"1097 0 LINE SMOOTH",
"1116 0 OFFCURVE",
"1134 17 OFFCURVE",
"1134 37 CURVE SMOOTH",
"1134 634 LINE SMOOTH",
"1134 654 OFFCURVE",
"1116 671 OFFCURVE",
"1097 671 CURVE SMOOTH"
);
},
{
closed = 1;
nodes = (
"842 396 LINE",
"993 396 LINE",
"993 118 LINE",
"952 118 LINE SMOOTH",
"881 118 OFFCURVE",
"840 148 OFFCURVE",
"841 247 CURVE SMOOTH"
);
},
{
closed = 1;
nodes = (
"459 512 OFFCURVE",
"394 518 OFFCURVE",
"349 518 CURVE SMOOTH",
"154 518 OFFCURVE",
"39 420 OFFCURVE",
"39 250 CURVE SMOOTH",
"39 238 LINE SMOOTH",
"39 87 OFFCURVE",
"127 -4 OFFCURVE",
"256 -4 CURVE SMOOTH",
"293 -4 OFFCURVE",
"318 6 OFFCURVE",
"339 26 CURVE SMOOTH",
"365 50 LINE",
"365 0 LINE",
"501 0 LINE",
"501 503 LINE"
);
},
{
closed = 1;
nodes = (
"191 353 OFFCURVE",
"238 396 OFFCURVE",
"320 396 CURVE SMOOTH",
"336 396 OFFCURVE",
"346 395 OFFCURVE",
"360 392 CURVE",
"360 122 LINE",
"343 119 OFFCURVE",
"330 118 OFFCURVE",
"315 118 CURVE SMOOTH",
"232 118 OFFCURVE",
"191 161 OFFCURVE",
"191 255 CURVE SMOOTH"
);
}
);
};
hints = (
{
horizontal = 1;
place = "{-4, 122}";
type = Stem;
},
{
horizontal = 1;
place = "{396, 118}";
type = Stem;
},
{
horizontal = 1;
place = "{671, -20}";
target = down;
type = TopGhost;
},
{
place = "{41, 149}";
type = Stem;
},
{
place = "{342, 141}";
type = Stem;
},
{
horizontal = 1;
place = "{0, 21}";
target = up;
type = BottomGhost;
}
);
layerId = "5839A0EB-CD27-4B31-AA48-098F33CA22E9";
paths = (
{
closed = 1;
nodes = (
"360 480 LINE",
"427 514 LINE",
"389 517 OFFCURVE",
"365 518 OFFCURVE",
"341 518 CURVE SMOOTH",
"153 518 OFFCURVE",
"39 419 OFFCURVE",
"39 250 CURVE SMOOTH",
"39 238 LINE SMOOTH",
"39 91 OFFCURVE",
"124 -4 OFFCURVE",
"256 -4 CURVE SMOOTH",
"292 -4 OFFCURVE",
"318 5 OFFCURVE",
"339 26 CURVE SMOOTH",
"365 50 LINE",
"365 0 LINE",
"501 0 LINE",
"501 720 LINE",
"360 720 LINE"
);
},
{
closed = 1;
nodes = (
"341 119 OFFCURVE",
"329 118 OFFCURVE",
"315 118 CURVE SMOOTH",
"232 118 OFFCURVE",
"191 162 OFFCURVE",
"191 252 CURVE SMOOTH",
"191 348 OFFCURVE",
"234 396 OFFCURVE",
"320 396 CURVE SMOOTH",
"336 396 OFFCURVE",
"346 395 OFFCURVE",
"360 392 CURVE",
"360 122 LINE"
);
}
);
width = 564;
}
);
leftMetricsKey = o;
note = d;
rightMetricsKey = "=|h";
unicode = 0064;
},
{
color = 3;
glyphname = e;
lastChange = "2019-02-14 20:57:51 +0000";
layers = (
{
background = {
paths = (
{
closed = 1;
nodes = (
"413 496 OFFCURVE",
"361 501 OFFCURVE",
"322 501 CURVE SMOOTH",
"153 501 OFFCURVE",
"50 406 OFFCURVE",
"50 248 CURVE SMOOTH",
"50 228 LINE SMOOTH",
"50 85 OFFCURVE",
"134 -4 OFFCURVE",
"270 -4 CURVE SMOOTH",
"313 -4 OFFCURVE",
"334 3 OFFCURVE",
"359 28 CURVE SMOOTH",
"379 49 LINE",
"379 0 LINE",
"454 0 LINE",
"454 489 LINE"
);
},
{
closed = 1;
nodes = (
"134 365 OFFCURVE",
"191 427 OFFCURVE",
"304 427 CURVE SMOOTH",
"332 427 OFFCURVE",
"351 425 OFFCURVE",
"377 422 CURVE",
"377 79 LINE",
"354 72 OFFCURVE",
"330 69 OFFCURVE",
"306 69 CURVE SMOOTH",
"182 69 OFFCURVE",
"134 119 OFFCURVE",
"134 248 CURVE SMOOTH"
);
}
);
};
hints = (
{
horizontal = 1;
place = "{-4, 75}";
type = Stem;
},
{
horizontal = 1;
place = "{209, 78}";
type = Stem;
},
{
horizontal = 1;
place = "{420, 81}";
type = Stem;
},
{
place = "{63, 82}";
type = Stem;
},
{
place = "{368, 70}";
type = Stem;
}
);
layerId = "2510F216-D89B-43CC-ACD1-209C5F77631B";
paths = (
{
closed = 1;
nodes = (
"349 -4 OFFCURVE",
"392 7 OFFCURVE",
"414 17 CURVE",
"431 94 LINE",
"389 79 OFFCURVE",
"355 70 OFFCURVE",
"316 70 CURVE SMOOTH",
"195 70 OFFCURVE",
"132 118 OFFCURVE",
"132 242 CURVE SMOOTH",
"132 257 LINE SMOOTH",
"132 355 OFFCURVE",
"177 433 OFFCURVE",
"282 433 CURVE SMOOTH",
"342 433 OFFCURVE",
"379 409 OFFCURVE",
"379 357 CURVE SMOOTH",
"379 312 OFFCURVE",
"352 287 OFFCURVE",
"285 286 CURVE SMOOTH",
"112 284 LINE",
"112 218 LINE",
"287 220 LINE SMOOTH",
"403 222 OFFCURVE",
"461 270 OFFCURVE",
"461 361 CURVE SMOOTH",
"461 445 OFFCURVE",
"391 501 OFFCURVE",
"285 501 CURVE SMOOTH",
"121 501 OFFCURVE",
"50 372 OFFCURVE",
"50 248 CURVE SMOOTH",
"50 228 LINE SMOOTH",
"50 83 OFFCURVE",
"143 -4 OFFCURVE",
"291 -4 CURVE SMOOTH"
);
}
);
width = 491;
},
{
background = {
paths = (
{
closed = 1;
nodes = (
"796 208 LINE SMOOTH",
"971 208 OFFCURVE",
"1030 291 OFFCURVE",
"1030 373 CURVE SMOOTH",
"1030 462 OFFCURVE",
"956 518 OFFCURVE",
"856 518 CURVE SMOOTH",
"727 518 OFFCURVE",
"618 440 OFFCURVE",
"618 257 CURVE SMOOTH",
"618 66 OFFCURVE",
"727 -4 OFFCURVE",
"858 -4 CURVE SMOOTH",
"924 -4 OFFCURVE",
"957 10 OFFCURVE",
"977 36 CURVE SMOOTH",
"1001 66 LINE",
"1008 75 OFFCURVE",
"1014 84 OFFCURVE",
"1014 96 CURVE SMOOTH",
"1014 108 OFFCURVE",
"1005 122 OFFCURVE",
"984 122 CURVE SMOOTH",
"900 121 LINE SMOOTH",
"821 120 OFFCURVE",
"781 146 OFFCURVE",
"768 208 CURVE"
);
},
{
closed = 1;
nodes = (
"763 411 LINE",
"799 411 LINE SMOOTH",
"871 411 OFFCURVE",
"905 374 OFFCURVE",
"905 324 CURVE SMOOTH",
"905 304 LINE",
"763 304 LINE"
);
},
{
closed = 1;
nodes = (
"338 -4 OFFCURVE",
"381 7 OFFCURVE",
"403 17 CURVE",
"419 94 LINE",
"378 79 OFFCURVE",
"344 70 OFFCURVE",
"304 70 CURVE SMOOTH",
"184 70 OFFCURVE",
"121 118 OFFCURVE",
"121 242 CURVE SMOOTH",
"121 257 LINE SMOOTH",
"121 355 OFFCURVE",
"166 433 OFFCURVE",
"270 433 CURVE SMOOTH",
"331 433 OFFCURVE",
"368 409 OFFCURVE",
"368 357 CURVE SMOOTH",
"368 312 OFFCURVE",
"341 287 OFFCURVE",
"274 286 CURVE SMOOTH",
"101 284 LINE",
"101 218 LINE",
"275 220 LINE SMOOTH",
"391 222 OFFCURVE",
"449 270 OFFCURVE",
"449 361 CURVE SMOOTH",
"449 445 OFFCURVE",
"380 501 OFFCURVE",
"274 501 CURVE SMOOTH",
"110 501 OFFCURVE",
"39 373 OFFCURVE",
"39 248 CURVE SMOOTH",
"39 228 LINE SMOOTH",
"39 83 OFFCURVE",
"131 -4 OFFCURVE",
"280 -4 CURVE SMOOTH"
);
}
);
};
hints = (
{
horizontal = 1;
place = "{-4, 125}";
type = Stem;
},
{
horizontal = 1;
place = "{208, 96}";
type = Stem;
},
{
horizontal = 1;
place = "{411, 107}";
type = Stem;
},
{
place = "{41, 145}";
type = Stem;
},
{
place = "{328, 125}";
type = Stem;
}
);
layerId = "5839A0EB-CD27-4B31-AA48-098F33CA22E9";
paths = (
{
closed = 1;
nodes = (
"351 -4 OFFCURVE",
"398 4 OFFCURVE",
"441 22 CURVE",
"463 142 LINE",
"414 127 OFFCURVE",
"369 119 OFFCURVE",
"329 119 CURVE SMOOTH",
"227 119 OFFCURVE",
"185 156 OFFCURVE",
"185 243 CURVE SMOOTH",
"185 298 LINE SMOOTH",
"185 356 OFFCURVE",
"221 411 OFFCURVE",
"292 411 CURVE SMOOTH",
"338 411 OFFCURVE",
"369 392 OFFCURVE",
"369 354 CURVE SMOOTH",
"369 320 OFFCURVE",
"347 304 OFFCURVE",
"300 304 CURVE SMOOTH",
"170 304 LINE",
"175 208 LINE",
"324 208 LINE SMOOTH",
"433 208 OFFCURVE",
"500 267 OFFCURVE",
"500 356 CURVE SMOOTH",
"500 453 OFFCURVE",
"416 518 OFFCURVE",
"293 518 CURVE SMOOTH",
"135 518 OFFCURVE",
"39 409 OFFCURVE",
"39 253 CURVE SMOOTH",
"39 241 LINE SMOOTH",
"39 88 OFFCURVE",
"136 -4 OFFCURVE",
"304 -4 CURVE SMOOTH"
);
}
);
width = 541;
}
);
leftMetricsKey = o;
note = e;
unicode = 0065;
},
{
color = 3;
glyphname = f;
lastChange = "2019-02-15 15:02:20 +0000";
layers = (
{
background = {
paths = (
{
closed = 1;
nodes = (
"432 710 LINE",
"402 721 OFFCURVE",
"358 727 OFFCURVE",
"323 727 CURVE SMOOTH",
"178 727 OFFCURVE",
"90 646 OFFCURVE",
"90 528 CURVE SMOOTH",
"90 0 LINE",
"167 0 LINE",
"167 517 LINE SMOOTH",
"167 616 OFFCURVE",
"228 653 OFFCURVE",
"314 653 CURVE SMOOTH",
"364 653 OFFCURVE",
"398 646 OFFCURVE",
"441 632 CURVE"
);
},
{
closed = 1;
nodes = (
"-10 434 LINE",
"334 434 LINE",
"334 500 LINE",
"-10 500 LINE"
);
}
);
};
layerId = "2510F216-D89B-43CC-ACD1-209C5F77631B";
paths = (
{
closed = 1;
nodes = (
"402 710 LINE",
"375 721 OFFCURVE",
"334 727 OFFCURVE",
"303 727 CURVE SMOOTH",
"170 727 OFFCURVE",
"90 646 OFFCURVE",
"90 528 CURVE SMOOTH",
"90 0 LINE",
"167 0 LINE",
"167 517 LINE SMOOTH",
"167 616 OFFCURVE",
"224 655 OFFCURVE",
"301 655 CURVE SMOOTH",
"345 655 OFFCURVE",
"373 648 OFFCURVE",
"411 634 CURVE"
);
},
{
closed = 1;
nodes = (
"-10 430 LINE",
"334 430 LINE",
"334 496 LINE",
"-10 496 LINE"
);
}
);
width = 326;
},
{
background = {
paths = (
{
closed = 1;
nodes = (
"455 716 LINE",
"420 726 OFFCURVE",
"375 730 OFFCURVE",
"348 730 CURVE SMOOTH",
"192 730 OFFCURVE",
"81 652 OFFCURVE",
"81 517 CURVE SMOOTH",
"81 0 LINE",
"222 0 LINE",
"222 520 LINE SMOOTH",
"222 584 OFFCURVE",
"266 615 OFFCURVE",
"347 615 CURVE SMOOTH",
"383 615 OFFCURVE",
"423 610 OFFCURVE",
"463 595 CURVE"
);
},
{
closed = 1;
nodes = (
"-10 402 LINE",
"375 402 LINE",
"375 514 LINE",
"-10 514 LINE"
);
}
);
};
layerId = "5839A0EB-CD27-4B31-AA48-098F33CA22E9";
paths = (
{
closed = 1;
nodes = (
"425 716 LINE",
"393 726 OFFCURVE",
"353 730 OFFCURVE",
"327 730 CURVE SMOOTH",
"183 730 OFFCURVE",
"81 652 OFFCURVE",
"81 517 CURVE SMOOTH",
"81 0 LINE",
"222 0 LINE",
"222 515 LINE SMOOTH",
"222 576 OFFCURVE",
"263 612 OFFCURVE",
"336 612 CURVE SMOOTH",
"365 612 OFFCURVE",
"398 607 OFFCURVE",
"433 592 CURVE"
);
},
{
closed = 1;
nodes = (
"-10 402 LINE",
"375 402 LINE",
"375 514 LINE",
"-10 514 LINE"
);
}
);
width = 370;
}
);
unicode = 0066;
},
{
color = 3;
glyphname = g;
lastChange = "2019-02-15 08:39:07 +0000";
layers = (
{
background = {
paths = (
{
closed = 1;
nodes = (
"133 367 OFFCURVE",
"191 427 OFFCURVE",
"306 427 CURVE SMOOTH",
"335 427 OFFCURVE",
"354 425 OFFCURVE",
"381 422 CURVE",
"381 89 LINE",
"358 82 OFFCURVE",
"333 79 OFFCURVE",
"309 79 CURVE SMOOTH",
"182 79 OFFCURVE",
"133 128 OFFCURVE",
"133 253 CURVE SMOOTH"
);
},
{
closed = 1;
nodes = (
"382 54 LINE SMOOTH",
"382 -60 OFFCURVE",
"329 -119 OFFCURVE",
"201 -119 CURVE SMOOTH",
"153 -119 OFFCURVE",
"102 -107 OFFCURVE",
"58 -86 CURVE",
"67 -168 LINE",
"108 -183 OFFCURVE",
"158 -190 OFFCURVE",
"201 -190 CURVE SMOOTH",
"372 -190 OFFCURVE",
"458 -97 OFFCURVE",
"458 64 CURVE SMOOTH",
"458 489 LINE",
"417 496 OFFCURVE",
"365 501 OFFCURVE",
"326 501 CURVE SMOOTH",
"155 501 OFFCURVE",
"50 406 OFFCURVE",
"50 253 CURVE SMOOTH",
"50 233 LINE SMOOTH",
"50 95 OFFCURVE",
"136 6 OFFCURVE",
"273 6 CURVE SMOOTH",
"317 6 OFFCURVE",
"338 13 OFFCURVE",
"363 38 CURVE SMOOTH",
"393 69 LINE",
"382 74 LINE"
);
}
);
};
hints = (
{
horizontal = 1;
place = "{-149, 78}";
type = Stem;
},
{
horizontal = 1;
place = "{42, 76}";
type = Stem;
},
{
horizontal = 1;
place = "{420, 77}";
type = Stem;
},
{
place = "{63, 81}";
type = Stem;
},
{
place = "{384, 76}";
type = Stem;
}
);
layerId = "2510F216-D89B-43CC-ACD1-209C5F77631B";
paths = (
{
closed = 1;
nodes = (
"133 367 OFFCURVE",
"191 427 OFFCURVE",
"306 427 CURVE SMOOTH",
"335 427 OFFCURVE",
"354 425 OFFCURVE",
"381 422 CURVE",
"381 89 LINE",
"358 82 OFFCURVE",
"333 79 OFFCURVE",
"309 79 CURVE SMOOTH",
"182 79 OFFCURVE",
"133 128 OFFCURVE",
"133 253 CURVE SMOOTH"
);
},
{
closed = 1;
nodes = (
"382 54 LINE SMOOTH",
"382 -60 OFFCURVE",
"329 -119 OFFCURVE",
"201 -119 CURVE SMOOTH",
"153 -119 OFFCURVE",
"102 -109 OFFCURVE",
"58 -92 CURVE",
"67 -174 LINE",
"108 -185 OFFCURVE",
"158 -190 OFFCURVE",
"201 -190 CURVE SMOOTH",
"372 -190 OFFCURVE",
"458 -97 OFFCURVE",
"458 64 CURVE SMOOTH",
"458 489 LINE",
"417 496 OFFCURVE",
"365 501 OFFCURVE",
"326 501 CURVE SMOOTH",
"155 501 OFFCURVE",
"50 406 OFFCURVE",
"50 253 CURVE SMOOTH",
"50 233 LINE SMOOTH",
"50 95 OFFCURVE",
"136 6 OFFCURVE",
"273 6 CURVE SMOOTH",
"317 6 OFFCURVE",
"338 13 OFFCURVE",
"363 38 CURVE SMOOTH",
"393 69 LINE",
"382 74 LINE"
);
}
);
width = 528;
},
{
background = {
paths = (
{
closed = 1;
nodes = (
"305 514 LINE SMOOTH",
"152 514 OFFCURVE",
"46 431 OFFCURVE",
"46 270 CURVE SMOOTH",
"46 112 OFFCURVE",
"130 38 OFFCURVE",
"248 38 CURVE SMOOTH",
"282 38 OFFCURVE",
"304 45 OFFCURVE",
"321 62 CURVE SMOOTH",
"340 80 LINE",
"340 -23 LINE",
"120 -23 LINE SMOOTH",
"105 -23 OFFCURVE",
"90 -26 OFFCURVE",
"78 -46 CURVE SMOOTH",
"56 -82 LINE SMOOTH",
"38 -115 OFFCURVE",
"41 -149 OFFCURVE",
"159 -149 CURVE SMOOTH",
"214 -149 LINE SMOOTH",
"378 -149 OFFCURVE",
"481 -70 OFFCURVE",
"481 96 CURVE SMOOTH",
"481 477 LINE SMOOTH",
"481 498 OFFCURVE",
"463 514 OFFCURVE",
"445 514 CURVE SMOOTH"
);
},
{
closed = 1;
nodes = (
"196 396 LINE",
"340 396 LINE",
"340 160 LINE",
"305 160 LINE SMOOTH",
"234 160 OFFCURVE",
"195 192 OFFCURVE",
"195 286 CURVE SMOOTH"
);
}
);
};
hints = (
{
horizontal = 1;
place = "{-149, 126}";
type = Stem;
},
{
horizontal = 1;
place = "{38, 122}";
type = Stem;
},
{
horizontal = 1;
place = "{396, 118}";
type = Stem;
},
{
place = "{41, 148}";
type = Stem;
},
{
place = "{335, 141}";
type = Stem;
}
);
layerId = "5839A0EB-CD27-4B31-AA48-098F33CA22E9";
paths = (
{
closed = 1;
nodes = (
"191 350 OFFCURVE",
"235 396 OFFCURVE",
"324 396 CURVE SMOOTH",
"340 396 OFFCURVE",
"351 395 OFFCURVE",
"365 392 CURVE",
"365 132 LINE",
"345 129 OFFCURVE",
"333 128 OFFCURVE",
"319 128 CURVE SMOOTH",
"233 128 OFFCURVE",
"191 170 OFFCURVE",
"191 257 CURVE SMOOTH"
);
},
{
closed = 1;
nodes = (
"367 53 LINE SMOOTH",
"367 -23 OFFCURVE",
"319 -70 OFFCURVE",
"205 -70 CURVE SMOOTH",
"152 -70 OFFCURVE",
"93 -59 OFFCURVE",
"47 -43 CURVE",
"74 -176 LINE",
"114 -187 OFFCURVE",
"156 -190 OFFCURVE",
"201 -190 CURVE SMOOTH",
"393 -190 OFFCURVE",
"506 -95 OFFCURVE",
"506 60 CURVE SMOOTH",
"506 503 LINE",
"463 512 OFFCURVE",
"397 518 OFFCURVE",
"346 518 CURVE SMOOTH",
"155 518 OFFCURVE",
"39 419 OFFCURVE",
"39 255 CURVE SMOOTH",
"39 243 LINE SMOOTH",
"39 101 OFFCURVE",
"125 6 OFFCURVE",
"260 6 CURVE SMOOTH",
"296 6 OFFCURVE",
"322 15 OFFCURVE",
"345 36 CURVE SMOOTH",
"378 66 LINE",
"367 99 LINE"
);
}
);
width = 569;
}
);
widthMetricsKey = "=a+5";
note = g;
rightMetricsKey = "=|n";
unicode = 0067;
},
{
color = 3;
glyphname = h;
lastChange = "2019-02-14 20:57:51 +0000";
layers = (
{
background = {
paths = (
{
closed = 1;
nodes = (
"80 671 LINE SMOOTH",
"75 671 OFFCURVE",
"70 665 OFFCURVE",
"70 661 CURVE SMOOTH",
"70 10 LINE SMOOTH",
"70 6 OFFCURVE",
"75 0 OFFCURVE",
"80 0 CURVE SMOOTH",
"136 0 LINE SMOOTH",
"141 0 OFFCURVE",
"147 6 OFFCURVE",
"147 10 CURVE SMOOTH",
"147 425 LINE",
"210 425 LINE SMOOTH",
"335 425 OFFCURVE",
"388 402 OFFCURVE",
"388 266 CURVE SMOOTH",
"388 10 LINE SMOOTH",
"388 6 OFFCURVE",
"393 0 OFFCURVE",
"398 0 CURVE SMOOTH",
"455 0 LINE SMOOTH",
"460 0 OFFCURVE",
"464 6 OFFCURVE",
"464 10 CURVE SMOOTH",
"464 291 LINE SMOOTH",
"464 446 OFFCURVE",
"375 501 OFFCURVE",
"263 501 CURVE SMOOTH",
"205 501 OFFCURVE",
"181 488 OFFCURVE",
"161 465 CURVE SMOOTH",
"147 447 LINE",
"147 660 LINE SMOOTH",
"147 665 OFFCURVE",
"141 671 OFFCURVE",
"136 671 CURVE SMOOTH"
);
}
);
};
hints = (
{
horizontal = 1;
place = "{0, 21}";
target = up;
type = BottomGhost;
},
{
horizontal = 1;
place = "{425, 76}";
type = Stem;
},
{
horizontal = 1;
place = "{671, -20}";
target = down;
type = TopGhost;
},
{
place = "{84, 77}";
type = Stem;
},
{
place = "{402, 76}";
type = Stem;
}
);
layerId = "2510F216-D89B-43CC-ACD1-209C5F77631B";
paths = (
{
closed = 1;
nodes = (
"70 720 LINE",
"70 0 LINE",
"147 0 LINE",
"147 418 LINE",
"167 425 OFFCURVE",
"193 428 OFFCURVE",
"218 428 CURVE SMOOTH",
"337 428 OFFCURVE",
"386 384 OFFCURVE",
"386 266 CURVE SMOOTH",
"386 0 LINE",
"462 0 LINE",
"462 291 LINE SMOOTH",
"462 424 OFFCURVE",
"385 501 OFFCURVE",
"253 501 CURVE SMOOTH",
"213 501 OFFCURVE",
"192 493 OFFCURVE",
"167 469 CURVE SMOOTH",
"120 421 LINE",
"147 435 LINE",
"147 720 LINE"
);
}
);
width = 530;
},
{
background = {
paths = (
{
closed = 1;
nodes = (
"100 671 LINE SMOOTH",
"81 671 OFFCURVE",
"63 654 OFFCURVE",
"63 633 CURVE SMOOTH",
"63 37 LINE SMOOTH",
"63 17 OFFCURVE",
"81 0 OFFCURVE",
"100 0 CURVE SMOOTH",
"167 0 LINE SMOOTH",
"186 0 OFFCURVE",
"204 17 OFFCURVE",
"204 37 CURVE SMOOTH",
"204 397 LINE",
"245 397 LINE SMOOTH",
"316 397 OFFCURVE",
"354 370 OFFCURVE",
"354 286 CURVE SMOOTH",
"354 37 LINE SMOOTH",
"354 17 OFFCURVE",
"373 0 OFFCURVE",
"392 0 CURVE SMOOTH",
"459 0 LINE SMOOTH",
"477 0 OFFCURVE",
"495 17 OFFCURVE",
"495 37 CURVE SMOOTH",
"495 315 LINE SMOOTH",
"495 464 OFFCURVE",
"413 518 OFFCURVE",
"303 518 CURVE SMOOTH",
"262 518 OFFCURVE",
"241 512 OFFCURVE",
"222 492 CURVE SMOOTH",
"204 474 LINE",
"204 634 LINE SMOOTH",
"204 654 OFFCURVE",
"186 671 OFFCURVE",
"167 671 CURVE SMOOTH"
);
}
);
};
hints = (
{
horizontal = 1;
place = "{0, 21}";
target = up;
type = BottomGhost;
},
{
horizontal = 1;
place = "{397, 122}";
type = Stem;
},
{
horizontal = 1;
place = "{671, -20}";
target = down;
type = TopGhost;
},
{
place = "{62, 141}";
type = Stem;
},
{
place = "{353, 141}";
type = Stem;
}
);
layerId = "5839A0EB-CD27-4B31-AA48-098F33CA22E9";
paths = (
{
closed = 1;
nodes = (
"63 720 LINE",
"63 0 LINE",
"204 0 LINE",
"204 392 LINE",
"220 396 OFFCURVE",
"231 397 OFFCURVE",
"249 397 CURVE SMOOTH",
"326 397 OFFCURVE",
"368 365 OFFCURVE",
"368 281 CURVE SMOOTH",
"368 0 LINE",
"508 0 LINE",
"508 299 LINE SMOOTH",
"508 445 OFFCURVE",
"431 518 OFFCURVE",
"309 518 CURVE SMOOTH",
"274 518 OFFCURVE",
"249 509 OFFCURVE",
"227 488 CURVE SMOOTH",
"174 439 LINE",
"204 427 LINE",
"204 720 LINE"
);
}
);
width = 568;
}
);
leftMetricsKey = n;
note = h;
rightMetricsKey = n;
unicode = 0068;
},
{
color = 3;
glyphname = i;
lastChange = "2019-02-15 08:47:43 +0000";
layers = (
{
hints = (
{
horizontal = 1;
place = "{0, 21}";
target = up;
type = BottomGhost;
},
{
horizontal = 1;
place = "{497, -20}";
target = down;
type = TopGhost;
},
{
place = "{84, 77}";
type = Stem;
}
);
layerId = "2510F216-D89B-43CC-ACD1-209C5F77631B";
paths = (
{
closed = 1;
nodes = (
"147 0 LINE",
"147 497 LINE",
"70 497 LINE",
"70 0 LINE"
);
},
{
closed = 1;
nodes = (
"142 604 OFFCURVE",
"165 627 OFFCURVE",
"165 660 CURVE SMOOTH",
"165 692 OFFCURVE",
"142 715 OFFCURVE",
"109 715 CURVE SMOOTH",
"76 715 OFFCURVE",
"52 692 OFFCURVE",
"52 660 CURVE SMOOTH",
"52 627 OFFCURVE",
"76 604 OFFCURVE",
"109 604 CURVE SMOOTH"
);
}
);
width = 217;
},
{
hints = (
{
horizontal = 1;
place = "{0, 21}";
target = up;
type = BottomGhost;
},
{
horizontal = 1;
place = "{514, -20}";
target = down;
type = TopGhost;
},
{
place = "{62, 141}";
type = Stem;
}
);
layerId = "5839A0EB-CD27-4B31-AA48-098F33CA22E9";
paths = (
{
closed = 1;
nodes = (
"204 0 LINE",
"204 514 LINE",
"63 514 LINE",
"63 0 LINE"
);
},
{
closed = 1;
nodes = (
"193 558 OFFCURVE",
"230 599 OFFCURVE",
"230 650 CURVE SMOOTH",
"230 701 OFFCURVE",
"193 742 OFFCURVE",
"134 742 CURVE SMOOTH",
"75 742 OFFCURVE",
"38 701 OFFCURVE",
"38 650 CURVE SMOOTH",
"38 599 OFFCURVE",
"75 558 OFFCURVE",
"134 558 CURVE SMOOTH"
);
}
);
width = 267;
}
);
note = i;
unicode = 0069;
},
{
color = 3;
glyphname = j;
lastChange = "2019-02-19 10:45:40 +0000";
layers = (
{
background = {
paths = (
{
closed = 1;
nodes = (
"-182 -173 LINE",
"-152 -184 OFFCURVE",
"-108 -190 OFFCURVE",
"-73 -190 CURVE SMOOTH",
"72 -190 OFFCURVE",
"160 -109 OFFCURVE",
"160 9 CURVE SMOOTH",
"160 497 LINE",
"83 497 LINE",
"83 20 LINE SMOOTH",
"83 -79 OFFCURVE",
"22 -116 OFFCURVE",
"-64 -116 CURVE SMOOTH",
"-114 -116 OFFCURVE",
"-148 -109 OFFCURVE",
"-191 -95 CURVE"
);
}
);
};
layerId = "2510F216-D89B-43CC-ACD1-209C5F77631B";
paths = (
{
closed = 1;
nodes = (
"77 -190 OFFCURVE",
"160 -118 OFFCURVE",
"160 4 CURVE SMOOTH",
"160 497 LINE",
"83 497 LINE",
"83 15 LINE SMOOTH",
"83 -87 OFFCURVE",
"24 -118 OFFCURVE",
"-57 -118 CURVE SMOOTH",
"-102 -118 OFFCURVE",
"-131 -111 OFFCURVE",
"-171 -97 CURVE",
"-162 -173 LINE",
"-134 -184 OFFCURVE",
"-92 -190 OFFCURVE",
"-59 -190 CURVE SMOOTH"
);
},
{
closed = 1;
nodes = (
"155 604 OFFCURVE",
"178 627 OFFCURVE",
"178 660 CURVE SMOOTH",
"178 692 OFFCURVE",
"155 715 OFFCURVE",
"122 715 CURVE SMOOTH",
"89 715 OFFCURVE",
"65 692 OFFCURVE",
"65 660 CURVE SMOOTH",
"65 627 OFFCURVE",
"89 604 OFFCURVE",
"122 604 CURVE SMOOTH"
);
}
);
width = 230;
},
{
background = {
paths = (
{
closed = 1;
nodes = (
"-140 -176 LINE",
"-105 -186 OFFCURVE",
"-60 -190 OFFCURVE",
"-33 -190 CURVE SMOOTH",
"123 -190 OFFCURVE",
"234 -112 OFFCURVE",
"234 23 CURVE SMOOTH",
"234 514 LINE",
"93 514 LINE",
"93 20 LINE SMOOTH",
"93 -44 OFFCURVE",
"49 -75 OFFCURVE",
"-32 -75 CURVE SMOOTH",
"-68 -75 OFFCURVE",
"-108 -70 OFFCURVE",
"-148 -55 CURVE"
);
},
{
closed = 1;
nodes = (
"194 558 OFFCURVE",
"231 599 OFFCURVE",
"231 650 CURVE SMOOTH",
"231 701 OFFCURVE",
"194 742 OFFCURVE",
"135 742 CURVE SMOOTH",
"76 742 OFFCURVE",
"39 701 OFFCURVE",
"39 650 CURVE SMOOTH",
"39 599 OFFCURVE",
"76 558 OFFCURVE",
"135 558 CURVE SMOOTH"
);
}
);
};
layerId = "5839A0EB-CD27-4B31-AA48-098F33CA22E9";
paths = (
{
closed = 1;
nodes = (
"129 -190 OFFCURVE",
"234 -112 OFFCURVE",
"234 23 CURVE SMOOTH",
"234 514 LINE",
"93 514 LINE",
"93 25 LINE SMOOTH",
"93 -36 OFFCURVE",
"50 -72 OFFCURVE",
"-26 -72 CURVE SMOOTH",
"-57 -72 OFFCURVE",
"-91 -67 OFFCURVE",
"-128 -52 CURVE",
"-120 -176 LINE",
"-87 -186 OFFCURVE",
"-46 -190 OFFCURVE",
"-19 -190 CURVE SMOOTH"
);
},
{
closed = 1;
nodes = (
"222 558 OFFCURVE",
"259 599 OFFCURVE",
"259 650 CURVE SMOOTH",
"259 701 OFFCURVE",
"222 742 OFFCURVE",
"163 742 CURVE SMOOTH",
"104 742 OFFCURVE",
"67 701 OFFCURVE",
"67 650 CURVE SMOOTH",
"67 599 OFFCURVE",
"104 558 OFFCURVE",
"163 558 CURVE SMOOTH"
);
}
);
width = 297;
}
);
unicode = 006A;
},
{
color = 3;
glyphname = k;
lastChange = "2019-02-15 15:11:45 +0000";
layers = (
{
background = {
paths = (
{
closed = 1;
nodes = (
"372 70 OFFCURVE",
"343 90 OFFCURVE",
"303 146 CURVE SMOOTH",
"225 255 LINE",
"204 215 LINE",
"271 215 LINE SMOOTH",
"388 215 OFFCURVE",
"456 268 OFFCURVE",
"456 361 CURVE SMOOTH",
"456 446 OFFCURVE",
"397 501 OFFCURVE",
"304 501 CURVE SMOOTH",
"244 501 OFFCURVE",
"182 473 OFFCURVE",
"147 429 CURVE",
"147 720 LINE",
"70 720 LINE",
"70 0 LINE",
"147 0 LINE",
"147 248 LINE",
"134 248 LINE",
"262 74 LINE SMOOTH",
"303 18 OFFCURVE",
"343 -4 OFFCURVE",
"402 -4 CURVE SMOOTH",
"428 -4 OFFCURVE",
"452 0 OFFCURVE",
"469 8 CURVE",
"481 80 LINE",
"462 73 OFFCURVE",
"438 68 OFFCURVE",
"417 68 CURVE"
);
},
{
closed = 1;
nodes = (
"342 433 OFFCURVE",
"374 404 OFFCURVE",
"374 358 CURVE SMOOTH",
"374 301 OFFCURVE",
"336 276 OFFCURVE",
"259 276 CURVE SMOOTH",
"147 276 LINE",
"147 344 LINE",
"180 399 OFFCURVE",
"233 433 OFFCURVE",
"292 433 CURVE SMOOTH"
);
}
);
};
guideLines = (
{
angle = 128.8201;
position = "{300, 161}";
}
);
hints = (
{
horizontal = 1;
place = "{0, 21}";
target = up;
type = BottomGhost;
},
{
horizontal = 1;
place = "{497, -20}";
target = down;
type = TopGhost;
},
{
horizontal = 1;
place = "{671, -20}";
target = down;
type = TopGhost;
},
{
place = "{84, 77}";
type = Stem;
}
);
layerId = "2510F216-D89B-43CC-ACD1-209C5F77631B";
paths = (
{
closed = 1;
nodes = (
"372 70 OFFCURVE",
"343 90 OFFCURVE",
"303 146 CURVE SMOOTH",
"225 255 LINE",
"203 215 LINE",
"269 215 LINE SMOOTH",
"385 215 OFFCURVE",
"452 268 OFFCURVE",
"452 361 CURVE SMOOTH",
"452 446 OFFCURVE",
"394 501 OFFCURVE",
"302 501 CURVE SMOOTH",
"243 501 OFFCURVE",
"182 473 OFFCURVE",
"147 429 CURVE",
"147 720 LINE",
"70 720 LINE",
"70 0 LINE",
"147 0 LINE",
"147 248 LINE",
"134 248 LINE",
"262 74 LINE SMOOTH",
"303 18 OFFCURVE",
"343 -4 OFFCURVE",
"402 -4 CURVE SMOOTH",
"428 -4 OFFCURVE",
"452 0 OFFCURVE",
"469 8 CURVE",
"481 80 LINE",
"462 73 OFFCURVE",
"438 68 OFFCURVE",
"417 68 CURVE"
);
},
{
closed = 1;
nodes = (
"339 433 OFFCURVE",
"370 404 OFFCURVE",
"370 358 CURVE SMOOTH",
"370 301 OFFCURVE",
"332 276 OFFCURVE",
"257 276 CURVE SMOOTH",
"147 276 LINE",
"147 344 LINE",
"179 399 OFFCURVE",
"232 433 OFFCURVE",
"289 433 CURVE SMOOTH"
);
}
);
width = 515;
},
{
background = {
paths = (
{
closed = 1;
nodes = (
"1056 114 OFFCURVE",
"1031 132 OFFCURVE",
"995 185 CURVE SMOOTH",
"940 265 LINE",
"909 209 LINE",
"932 209 LINE SMOOTH",
"1032 209 OFFCURVE",
"1109 271 OFFCURVE",
"1109 360 CURVE SMOOTH",
"1109 454 OFFCURVE",
"1041 518 OFFCURVE",
"940 518 CURVE SMOOTH",
"882 518 OFFCURVE",
"838 504 OFFCURVE",
"804 474 CURVE",
"804 720 LINE",
"663 719 LINE",
"663 0 LINE",
"804 0 LINE",
"803 261 LINE",
"782 240 LINE",
"901 74 LINE SMOOTH",
"939 21 OFFCURVE",
"983 -3 OFFCURVE",
"1049 -6 CURVE SMOOTH",
"1075 -7 OFFCURVE",
"1107 -1 OFFCURVE",
"1128 9 CURVE",
"1147 123 LINE",
"1133 118 OFFCURVE",
"1109 114 OFFCURVE",
"1094 114 CURVE SMOOTH"
);
},
{
closed = 1;
nodes = (
"951 411 OFFCURVE",
"978 390 OFFCURVE",
"978 355 CURVE SMOOTH",
"978 317 OFFCURVE",
"945 292 OFFCURVE",
"874 292 CURVE SMOOTH",
"804 292 LINE",
"804 359 LINE",
"822 389 OFFCURVE",
"864 411 OFFCURVE",
"905 411 CURVE SMOOTH"
);
},
{
closed = 1;
nodes = (
"465 114 OFFCURVE",
"431 132 OFFCURVE",
"395 185 CURVE SMOOTH",
"340 265 LINE",
"309 209 LINE",
"332 209 LINE SMOOTH",
"432 209 OFFCURVE",
"509 271 OFFCURVE",
"509 360 CURVE SMOOTH",
"509 454 OFFCURVE",
"441 518 OFFCURVE",
"340 518 CURVE SMOOTH",
"282 518 OFFCURVE",
"238 504 OFFCURVE",
"204 474 CURVE",
"204 720 LINE",
"63 719 LINE",
"63 0 LINE",
"204 0 LINE",
"203 261 LINE",
"182 240 LINE",
"301 74 LINE SMOOTH",
"339 21 OFFCURVE",
"395 -6 OFFCURVE",
"465 -6 CURVE SMOOTH",
"491 -6 OFFCURVE",
"527 -2 OFFCURVE",
"553 9 CURVE",
"572 123 LINE",
"555 118 OFFCURVE",
"527 114 OFFCURVE",
"509 114 CURVE SMOOTH"
);
},
{
closed = 1;
nodes = (
"351 411 OFFCURVE",
"378 390 OFFCURVE",
"378 355 CURVE SMOOTH",
"378 317 OFFCURVE",
"345 292 OFFCURVE",
"274 292 CURVE SMOOTH",
"204 292 LINE",
"204 359 LINE",
"222 389 OFFCURVE",
"264 411 OFFCURVE",
"305 411 CURVE SMOOTH"
);
}
);
};
guideLines = (
{
angle = 123.3833;
position = "{406, 154}";
}
);
hints = (
{
horizontal = 1;
place = "{0, 21}";
target = up;
type = BottomGhost;
},
{
horizontal = 1;
place = "{514, -20}";
target = down;
type = TopGhost;
},
{
horizontal = 1;
place = "{671, -20}";
target = down;
type = TopGhost;
},
{
place = "{62, 141}";
type = Stem;
}
);
layerId = "5839A0EB-CD27-4B31-AA48-098F33CA22E9";
paths = (
{
closed = 1;
nodes = (
"452 114 OFFCURVE",
"420 130 OFFCURVE",
"399 163 CURVE SMOOTH",
"333 265 LINE",
"299 204 LINE",
"322 204 LINE SMOOTH",
"422 204 OFFCURVE",
"509 262 OFFCURVE",
"509 364 CURVE SMOOTH",
"509 452 OFFCURVE",
"441 518 OFFCURVE",
"340 518 CURVE SMOOTH",
"282 518 OFFCURVE",
"238 503 OFFCURVE",
"204 473 CURVE",
"204 720 LINE",
"63 719 LINE",
"63 0 LINE",
"204 0 LINE",
"203 261 LINE",
"182 240 LINE",
"296 67 LINE SMOOTH",
"328 19 OFFCURVE",
"382 -6 OFFCURVE",
"452 -6 CURVE SMOOTH",
"478 -6 OFFCURVE",
"514 -2 OFFCURVE",
"540 9 CURVE",
"559 123 LINE",
"542 118 OFFCURVE",
"514 114 OFFCURVE",
"496 114 CURVE SMOOTH"
);
},
{
closed = 1;
nodes = (
"351 411 OFFCURVE",
"378 395 OFFCURVE",
"378 353 CURVE SMOOTH",
"378 313 OFFCURVE",
"345 287 OFFCURVE",
"274 287 CURVE SMOOTH",
"204 287 LINE",
"204 357 LINE",
"222 388 OFFCURVE",
"264 411 OFFCURVE",
"305 411 CURVE SMOOTH"
);
}
);
width = 561;
}
);
leftMetricsKey = h;
note = k;
unicode = 006B;
},
{
color = 3;
glyphname = l;
lastChange = "2019-02-18 20:26:57 +0000";
layers = (
{
background = {
paths = (
{
closed = 1;
nodes = (
"254 74 OFFCURVE",
"240 70 OFFCURVE",
"217 70 CURVE SMOOTH",
"177 70 OFFCURVE",
"147 89 OFFCURVE",
"147 140 CURVE SMOOTH",
"147 198 LINE",
"70 198 LINE",
"70 119 LINE SMOOTH",
"70 46 OFFCURVE",
"121 -4 OFFCURVE",
"205 -4 CURVE SMOOTH",
"225 -4 OFFCURVE",
"251 0 OFFCURVE",
"269 6 CURVE",
"274 80 LINE"
);
}
);
};
hints = (
{
horizontal = 1;
place = "{0, 21}";
target = up;
type = BottomGhost;
},
{
horizontal = 1;
place = "{671, -20}";
target = down;
type = TopGhost;
},
{
place = "{84, 77}";
type = Stem;
}
);
layerId = "2510F216-D89B-43CC-ACD1-209C5F77631B";
paths = (
{
closed = 1;
nodes = (
"225 -4 OFFCURVE",
"251 0 OFFCURVE",
"269 6 CURVE",
"279 77 LINE",
"253 69 OFFCURVE",
"236 67 OFFCURVE",
"217 67 CURVE SMOOTH",
"169 67 OFFCURVE",
"147 92 OFFCURVE",
"147 137 CURVE SMOOTH",
"147 720 LINE",
"70 720 LINE",
"70 119 LINE SMOOTH",
"70 41 OFFCURVE",
"120 -4 OFFCURVE",
"205 -4 CURVE SMOOTH"
);
}
);
width = 278;
},
{
hints = (
{
horizontal = 1;
place = "{0, 21}";
target = up;
type = BottomGhost;
},
{
horizontal = 1;
place = "{671, -20}";
target = down;
type = TopGhost;
},
{
place = "{62, 141}";
type = Stem;
}
);
layerId = "5839A0EB-CD27-4B31-AA48-098F33CA22E9";
paths = (
{
closed = 1;
nodes = (
"252 -4 OFFCURVE",
"276 -1 OFFCURVE",
"293 5 CURVE",
"306 117 LINE",
"293 112 OFFCURVE",
"276 110 OFFCURVE",
"259 110 CURVE SMOOTH",
"224 110 OFFCURVE",
"204 127 OFFCURVE",
"204 164 CURVE SMOOTH",
"204 720 LINE",
"63 720 LINE",
"63 144 LINE SMOOTH",
"63 50 OFFCURVE",
"125 -4 OFFCURVE",
"227 -4 CURVE SMOOTH"
);
}
);
width = 308;
}
);
note = l;
unicode = 006C;
},
{
glyphname = m;
lastChange = "2019-02-07 21:08:51 +0000";
layers = (
{
hints = (
{
horizontal = 1;
place = "{0, 21}";
target = up;
type = BottomGhost;
},
{
horizontal = 1;
place = "{497, -20}";
target = down;
type = TopGhost;
},
{
place = "{84, 77}";
type = Stem;
},
{
place = "{389, 77}";
type = Stem;
},
{
place = "{687, 76}";
type = Stem;
},
{
horizontal = 1;
place = "{425, 76}";
type = Stem;
}
);
layerId = "2510F216-D89B-43CC-ACD1-209C5F77631B";
paths = (
{
closed = 1;
nodes = (
"94 497 LINE SMOOTH",
"89 497 OFFCURVE",
"84 491 OFFCURVE",
"84 487 CURVE SMOOTH",
"84 10 LINE SMOOTH",
"84 6 OFFCURVE",
"89 0 OFFCURVE",
"94 0 CURVE SMOOTH",
"150 0 LINE SMOOTH",
"155 0 OFFCURVE",
"161 6 OFFCURVE",
"161 10 CURVE SMOOTH",
"161 425 LINE",
"212 425 LINE SMOOTH",
"340 425 OFFCURVE",
"389 402 OFFCURVE",
"389 266 CURVE SMOOTH",
"389 10 LINE SMOOTH",
"389 6 OFFCURVE",
"395 0 OFFCURVE",
"400 0 CURVE SMOOTH",
"456 0 LINE SMOOTH",
"461 0 OFFCURVE",
"466 6 OFFCURVE",
"466 10 CURVE SMOOTH",
"466 291 LINE SMOOTH",
"466 345 OFFCURVE",
"455 387 OFFCURVE",
"437 418 CURVE",
"458 423 OFFCURVE",
"478 425 OFFCURVE",
"502 425 CURVE SMOOTH",
"634 425 OFFCURVE",
"687 402 OFFCURVE",
"687 266 CURVE SMOOTH",
"687 10 LINE SMOOTH",
"687 6 OFFCURVE",
"692 0 OFFCURVE",
"697 0 CURVE SMOOTH",
"753 0 LINE SMOOTH",
"758 0 OFFCURVE",
"763 6 OFFCURVE",
"763 10 CURVE SMOOTH",
"763 291 LINE SMOOTH",
"763 446 OFFCURVE",
"680 501 OFFCURVE",
"547 501 CURVE SMOOTH",
"478 501 OFFCURVE",
"456 498 OFFCURVE",
"409 454 CURVE",
"373 487 OFFCURVE",
"325 501 OFFCURVE",
"269 501 CURVE SMOOTH",
"219 501 OFFCURVE",
"191 488 OFFCURVE",
"172 465 CURVE SMOOTH",
"157 448 LINE",
"157 486 LINE SMOOTH",
"157 491 OFFCURVE",
"152 497 OFFCURVE",
"147 497 CURVE SMOOTH"
);
}
);
width = 847;
},
{
hints = (
{
horizontal = 1;
place = "{0, 21}";
target = up;
type = BottomGhost;
},
{
horizontal = 1;
place = "{514, -20}";
target = down;
type = TopGhost;
},
{
place = "{62, 141}";
type = Stem;
},
{
place = "{343, 141}";
type = Stem;
},
{
place = "{622, 141}";
type = Stem;
},
{
horizontal = 1;
place = "{397, 122}";
type = Stem;
}
);
layerId = "5839A0EB-CD27-4B31-AA48-098F33CA22E9";
paths = (
{
closed = 1;
nodes = (
"99 514 LINE SMOOTH",
"80 514 OFFCURVE",
"62 498 OFFCURVE",
"62 477 CURVE SMOOTH",
"62 37 LINE SMOOTH",
"62 17 OFFCURVE",
"80 0 OFFCURVE",
"99 0 CURVE SMOOTH",
"166 0 LINE SMOOTH",
"185 0 OFFCURVE",
"203 17 OFFCURVE",
"203 37 CURVE SMOOTH",
"203 397 LINE",
"233 397 LINE SMOOTH",
"304 397 OFFCURVE",
"343 370 OFFCURVE",
"343 286 CURVE SMOOTH",
"343 37 LINE SMOOTH",
"343 17 OFFCURVE",
"361 0 OFFCURVE",
"380 0 CURVE SMOOTH",
"446 0 LINE SMOOTH",
"465 0 OFFCURVE",
"483 17 OFFCURVE",
"483 37 CURVE SMOOTH",
"483 315 LINE SMOOTH",
"483 346 OFFCURVE",
"480 373 OFFCURVE",
"474 396 CURVE",
"488 397 OFFCURVE",
"502 397 OFFCURVE",
"512 397 CURVE SMOOTH",
"583 397 OFFCURVE",
"622 370 OFFCURVE",
"622 286 CURVE SMOOTH",
"622 37 LINE SMOOTH",
"622 17 OFFCURVE",
"640 0 OFFCURVE",
"659 0 CURVE SMOOTH",
"725 0 LINE SMOOTH",
"744 0 OFFCURVE",
"762 17 OFFCURVE",
"762 37 CURVE SMOOTH",
"762 315 LINE SMOOTH",
"762 464 OFFCURVE",
"681 518 OFFCURVE",
"571 518 CURVE SMOOTH",
"513 518 OFFCURVE",
"478 508 OFFCURVE",
"433 468 CURVE",
"399 503 OFFCURVE",
"349 518 OFFCURVE",
"292 518 CURVE SMOOTH",
"261 518 OFFCURVE",
"239 512 OFFCURVE",
"220 492 CURVE SMOOTH",
"199 469 LINE",
"199 478 LINE SMOOTH",
"199 498 OFFCURVE",
"180 514 OFFCURVE",
"161 514 CURVE SMOOTH"
);
}
);
width = 825;
}
);
note = m;
unicode = 006D;
},
{
color = 3;
glyphname = n;
lastChange = "2019-02-14 20:47:36 +0000";
layers = (
{
background = {
paths = (
{
closed = 1;
nodes = (
"576 501 LINE SMOOTH",
"571 501 OFFCURVE",
"566 495 OFFCURVE",
"566 491 CURVE SMOOTH",
"566 14 LINE SMOOTH",
"566 10 OFFCURVE",
"571 4 OFFCURVE",
"576 4 CURVE SMOOTH",
"633 4 LINE SMOOTH",
"637 4 OFFCURVE",
"643 10 OFFCURVE",
"643 14 CURVE SMOOTH",
"643 429 LINE",
"707 429 LINE SMOOTH",
"832 429 OFFCURVE",
"885 406 OFFCURVE",
"885 270 CURVE SMOOTH",
"885 14 LINE SMOOTH",
"885 10 OFFCURVE",
"890 4 OFFCURVE",
"895 4 CURVE SMOOTH",
"951 4 LINE SMOOTH",
"956 4 OFFCURVE",
"961 10 OFFCURVE",
"961 14 CURVE SMOOTH",
"961 296 LINE SMOOTH",
"961 450 OFFCURVE",
"872 505 OFFCURVE",
"760 505 CURVE SMOOTH",
"701 505 OFFCURVE",
"674 492 OFFCURVE",
"655 469 CURVE SMOOTH",
"640 452 LINE",
"640 490 LINE SMOOTH",
"640 495 OFFCURVE",
"635 501 OFFCURVE",
"630 501 CURVE SMOOTH"
);
},
{
closed = 1;
nodes = (
"41 514 LINE",
"41 0 LINE",
"182 0 LINE",
"182 392 LINE",
"198 396 OFFCURVE",
"210 397 OFFCURVE",
"227 397 CURVE SMOOTH",
"304 397 OFFCURVE",
"346 365 OFFCURVE",
"346 281 CURVE SMOOTH",
"346 0 LINE",
"487 0 LINE",
"487 299 LINE SMOOTH",
"487 445 OFFCURVE",
"409 518 OFFCURVE",
"287 518 CURVE SMOOTH",
"250 518 OFFCURVE",
"225 509 OFFCURVE",
"203 488 CURVE SMOOTH",
"177 464 LINE",
"177 514 LINE"
);
}
);
};
hints = (
{
horizontal = 1;
place = "{0, 21}";
target = up;
type = BottomGhost;
},
{
horizontal = 1;
place = "{497, -20}";
target = down;
type = TopGhost;
},
{
place = "{84, 77}";
type = Stem;
},
{
place = "{402, 76}";
type = Stem;
},
{
horizontal = 1;
place = "{425, 76}";
type = Stem;
}
);
layerId = "2510F216-D89B-43CC-ACD1-209C5F77631B";
paths = (
{
closed = 1;
nodes = (
"70 497 LINE",
"70 0 LINE",
"147 0 LINE",
"147 418 LINE",
"167 424 OFFCURVE",
"193 428 OFFCURVE",
"218 428 CURVE SMOOTH",
"337 428 OFFCURVE",
"386 384 OFFCURVE",
"386 266 CURVE SMOOTH",
"386 0 LINE",
"462 0 LINE",
"462 291 LINE SMOOTH",
"462 424 OFFCURVE",
"385 501 OFFCURVE",
"253 501 CURVE SMOOTH",
"210 501 OFFCURVE",
"190 493 OFFCURVE",
"165 469 CURVE SMOOTH",
"144 448 LINE",
"144 497 LINE"
);
}
);
width = 530;
},
{
background = {
paths = (
{
closed = 1;
nodes = (
"106 2 OFFCURVE",
"172 -4 OFFCURVE",
"215 -4 CURVE SMOOTH",
"411 -4 OFFCURVE",
"525 95 OFFCURVE",
"525 264 CURVE SMOOTH",
"525 276 LINE SMOOTH",
"525 423 OFFCURVE",
"440 518 OFFCURVE",
"308 518 CURVE SMOOTH",
"272 518 OFFCURVE",
"246 509 OFFCURVE",
"225 488 CURVE SMOOTH",
"199 464 LINE",
"199 514 LINE",
"63 514 LINE",
"63 11 LINE"
);
},
{
closed = 1;
nodes = (
"373 166 OFFCURVE",
"330 118 OFFCURVE",
"244 118 CURVE SMOOTH",
"228 118 OFFCURVE",
"218 119 OFFCURVE",
"204 122 CURVE",
"204 392 LINE",
"223 396 OFFCURVE",
"234 397 OFFCURVE",
"249 397 CURVE SMOOTH",
"331 397 OFFCURVE",
"373 352 OFFCURVE",
"373 262 CURVE SMOOTH"
);
}
);
};
hints = (
{
horizontal = 1;
place = "{0, 21}";
target = up;
type = BottomGhost;
},
{
horizontal = 1;
place = "{514, -20}";
target = down;
type = TopGhost;
},
{
place = "{62, 141}";
type = Stem;
},
{
place = "{353, 141}";
type = Stem;
},
{
horizontal = 1;
place = "{397, 122}";
type = Stem;
}
);
layerId = "5839A0EB-CD27-4B31-AA48-098F33CA22E9";
paths = (
{
closed = 1;
nodes = (
"63 514 LINE",
"63 0 LINE",
"204 0 LINE",
"204 392 LINE",
"220 395 OFFCURVE",
"231 397 OFFCURVE",
"249 397 CURVE SMOOTH",
"326 397 OFFCURVE",
"368 365 OFFCURVE",
"368 281 CURVE SMOOTH",
"368 0 LINE",
"508 0 LINE",
"508 299 LINE SMOOTH",
"508 445 OFFCURVE",
"431 518 OFFCURVE",
"309 518 CURVE SMOOTH",
"272 518 OFFCURVE",
"246 509 OFFCURVE",
"225 488 CURVE SMOOTH",
"199 464 LINE",
"199 514 LINE"
);
}
);
width = 568;
}
);
note = n;
unicode = 006E;
},
{
color = 3;
glyphname = o;
lastChange = "2019-02-14 20:53:12 +0000";
layers = (
{
background = {
paths = (
{
closed = 1;
nodes = (
"414 496 OFFCURVE",
"362 501 OFFCURVE",
"323 501 CURVE SMOOTH",
"153 501 OFFCURVE",
"51 406 OFFCURVE",
"51 248 CURVE SMOOTH",
"51 228 LINE SMOOTH",
"51 85 OFFCURVE",
"135 -4 OFFCURVE",
"271 -4 CURVE SMOOTH",
"314 -4 OFFCURVE",
"335 3 OFFCURVE",
"360 28 CURVE SMOOTH",
"380 49 LINE",
"380 0 LINE",
"455 0 LINE",
"455 489 LINE"
);
},
{
closed = 1;
nodes = (
"134 365 OFFCURVE",
"192 427 OFFCURVE",
"305 427 CURVE SMOOTH",
"333 427 OFFCURVE",
"352 425 OFFCURVE",
"378 422 CURVE",
"378 79 LINE",
"355 72 OFFCURVE",
"331 69 OFFCURVE",
"307 69 CURVE SMOOTH",
"182 69 OFFCURVE",
"134 119 OFFCURVE",
"134 248 CURVE SMOOTH"
);
}
);
};
hints = (
{
horizontal = 1;
place = "{-4, 76}";
type = Stem;
},
{
horizontal = 1;
place = "{425, 76}";
type = Stem;
},
{
place = "{63, 81}";
type = Stem;
},
{
place = "{416, 81}";
type = Stem;
}
);
layerId = "2510F216-D89B-43CC-ACD1-209C5F77631B";
paths = (
{
closed = 1;
nodes = (
"145 501 OFFCURVE",
"50 393 OFFCURVE",
"50 248 CURVE SMOOTH",
"50 228 LINE SMOOTH",
"50 86 OFFCURVE",
"145 -4 OFFCURVE",
"273 -4 CURVE SMOOTH",
"413 -4 OFFCURVE",
"504 104 OFFCURVE",
"504 248 CURVE SMOOTH",
"504 268 LINE SMOOTH",
"504 411 OFFCURVE",
"413 501 OFFCURVE",
"288 501 CURVE SMOOTH"
);
},
{
closed = 1;
nodes = (
"188 70 OFFCURVE",
"132 128 OFFCURVE",
"132 247 CURVE SMOOTH",
"132 362 OFFCURVE",
"193 426 OFFCURVE",
"282 426 CURVE SMOOTH",
"369 426 OFFCURVE",
"422 368 OFFCURVE",
"422 250 CURVE SMOOTH",
"422 136 OFFCURVE",
"364 70 OFFCURVE",
"276 70 CURVE SMOOTH"
);
}
);
width = 554;
},
{
background = {
paths = (
{
closed = 1;
nodes = (
"143 518 OFFCURVE",
"39 406 OFFCURVE",
"39 257 CURVE SMOOTH",
"39 237 LINE SMOOTH",
"39 89 OFFCURVE",
"143 -4 OFFCURVE",
"284 -4 CURVE SMOOTH",
"438 -4 OFFCURVE",
"539 108 OFFCURVE",
"539 257 CURVE SMOOTH",
"539 278 LINE SMOOTH",
"539 425 OFFCURVE",
"438 518 OFFCURVE",
"300 518 CURVE SMOOTH"
);
},
{
closed = 1;
nodes = (
"229 119 OFFCURVE",
"192 164 OFFCURVE",
"192 256 CURVE SMOOTH",
"192 344 OFFCURVE",
"233 395 OFFCURVE",
"294 395 CURVE SMOOTH",
"351 395 OFFCURVE",
"387 349 OFFCURVE",
"387 258 CURVE SMOOTH",
"387 170 OFFCURVE",
"348 119 OFFCURVE",
"289 119 CURVE SMOOTH"
);
}
);
};
hints = (
{
horizontal = 1;
place = "{-4, 122}";
type = Stem;
},
{
horizontal = 1;
place = "{397, 122}";
type = Stem;
},
{
place = "{41, 149}";
type = Stem;
},
{
place = "{352, 148}";
type = Stem;
}
);
layerId = "5839A0EB-CD27-4B31-AA48-098F33CA22E9";
paths = (
{
closed = 1;
nodes = (
"143 518 OFFCURVE",
"39 404 OFFCURVE",
"39 257 CURVE SMOOTH",
"39 237 LINE SMOOTH",
"39 89 OFFCURVE",
"143 -4 OFFCURVE",
"284 -4 CURVE SMOOTH",
"438 -4 OFFCURVE",
"539 110 OFFCURVE",
"539 257 CURVE SMOOTH",
"539 278 LINE SMOOTH",
"539 425 OFFCURVE",
"438 518 OFFCURVE",
"300 518 CURVE SMOOTH"
);
},
{
closed = 1;
nodes = (
"228 119 OFFCURVE",
"190 164 OFFCURVE",
"190 256 CURVE SMOOTH",
"190 346 OFFCURVE",
"232 395 OFFCURVE",
"294 395 CURVE SMOOTH",
"352 395 OFFCURVE",
"389 349 OFFCURVE",
"389 258 CURVE SMOOTH",
"389 168 OFFCURVE",
"349 119 OFFCURVE",
"289 119 CURVE SMOOTH"
);
}
);
width = 578;
}
);
note = o;
rightMetricsKey = "=|";
unicode = 006F;
},
{
color = 3;
glyphname = p;
lastChange = "2019-02-14 22:36:03 +0000";
layers = (
{
background = {
paths = (
{
closed = 1;
nodes = (
"161 -145 LINE SMOOTH",
"166 -145 OFFCURVE",
"172 -139 OFFCURVE",
"172 -135 CURVE SMOOTH",
"172 0 LINE",
"232 0 LINE SMOOTH",
"399 0 OFFCURVE",
"494 70 OFFCURVE",
"494 231 CURVE SMOOTH",
"494 261 LINE SMOOTH",
"494 394 OFFCURVE",
"434 501 OFFCURVE",
"290 501 CURVE SMOOTH",
"235 501 OFFCURVE",
"215 492 OFFCURVE",
"205 481 CURVE SMOOTH",
"169 445 LINE",
"168 449 LINE",
"168 486 LINE SMOOTH",
"168 491 OFFCURVE",
"163 497 OFFCURVE",
"158 497 CURVE SMOOTH",
"105 497 LINE SMOOTH",
"100 497 OFFCURVE",
"95 491 OFFCURVE",
"95 487 CURVE SMOOTH",
"95 -135 LINE SMOOTH",
"95 -139 OFFCURVE",
"100 -145 OFFCURVE",
"105 -145 CURVE SMOOTH"
);
},
{
closed = 1;
nodes = (
"172 425 LINE",
"238 425 LINE SMOOTH",
"373 425 OFFCURVE",
"412 377 OFFCURVE",
"412 226 CURVE SMOOTH",
"411 76 LINE",
"172 76 LINE"
);
}
);
};
hints = (
{
horizontal = 1;
place = "{-145, 21}";
target = up;
type = BottomGhost;
},
{
horizontal = 1;
place = "{0, 76}";
type = Stem;
},
{
horizontal = 1;
place = "{497, -20}";
target = down;
type = TopGhost;
},
{
place = "{84, 77}";
type = Stem;
},
{
place = "{401, 81}";
type = Stem;
},
{
horizontal = 1;
place = "{425, 76}";
type = Stem;
}
);
layerId = "2510F216-D89B-43CC-ACD1-209C5F77631B";
paths = (
{
closed = 1;
nodes = (
"147 44 LINE",
"116 6 LINE",
"143 3 OFFCURVE",
"174 0 OFFCURVE",
"202 0 CURVE SMOOTH",
"370 0 OFFCURVE",
"473 95 OFFCURVE",
"473 253 CURVE SMOOTH",
"473 273 LINE SMOOTH",
"473 416 OFFCURVE",
"389 505 OFFCURVE",
"254 505 CURVE SMOOTH",
"211 505 OFFCURVE",
"189 499 OFFCURVE",
"165 473 CURVE SMOOTH",
"145 452 LINE",
"145 501 LINE",
"70 501 LINE",
"70 -180 LINE",
"147 -180 LINE"
);
},
{
closed = 1;
nodes = (
"170 429 OFFCURVE",
"194 432 OFFCURVE",
"218 432 CURVE SMOOTH",
"342 432 OFFCURVE",
"390 382 OFFCURVE",
"390 253 CURVE SMOOTH",
"390 136 OFFCURVE",
"333 74 OFFCURVE",
"220 74 CURVE SMOOTH",
"192 74 OFFCURVE",
"173 76 OFFCURVE",
"147 79 CURVE",
"147 422 LINE"
);
}
);
width = 523;
},
{
background = {
paths = (
{
closed = 1;
nodes = (
"191 -145 LINE SMOOTH",
"210 -145 OFFCURVE",
"228 -128 OFFCURVE",
"228 -108 CURVE SMOOTH",
"228 0 LINE",
"270 0 LINE SMOOTH",
"423 0 OFFCURVE",
"529 80 OFFCURVE",
"529 252 CURVE SMOOTH",
"529 278 LINE SMOOTH",
"529 447 OFFCURVE",
"446 518 OFFCURVE",
"328 518 CURVE SMOOTH",
"287 518 OFFCURVE",
"267 512 OFFCURVE",
"249 494 CURVE SMOOTH",
"224 469 LINE",
"224 478 LINE SMOOTH",
"224 498 OFFCURVE",
"205 514 OFFCURVE",
"186 514 CURVE SMOOTH",
"124 514 LINE SMOOTH",
"105 514 OFFCURVE",
"87 498 OFFCURVE",
"87 477 CURVE SMOOTH",
"87 -108 LINE SMOOTH",
"87 -128 OFFCURVE",
"105 -145 OFFCURVE",
"124 -145 CURVE SMOOTH"
);
},
{
closed = 1;
nodes = (
"228 397 LINE",
"270 397 LINE SMOOTH",
"341 397 OFFCURVE",
"381 366 OFFCURVE",
"381 267 CURVE SMOOTH",
"379 122 LINE",
"228 122 LINE"
);
}
);
};
hints = (
{
horizontal = 1;
place = "{-145, 21}";
target = up;
type = BottomGhost;
},
{
horizontal = 1;
place = "{0, 122}";
type = Stem;
},
{
horizontal = 1;
place = "{514, -20}";
target = down;
type = TopGhost;
},
{
place = "{62, 141}";
type = Stem;
},
{
place = "{355, 149}";
type = Stem;
},
{
horizontal = 1;
place = "{397, 122}";
type = Stem;
}
);
layerId = "5839A0EB-CD27-4B31-AA48-098F33CA22E9";
paths = (
{
closed = 1;
nodes = (
"204 34 LINE",
"137 0 LINE",
"175 -3 OFFCURVE",
"199 -4 OFFCURVE",
"223 -4 CURVE SMOOTH",
"411 -4 OFFCURVE",
"525 95 OFFCURVE",
"525 264 CURVE SMOOTH",
"525 276 LINE SMOOTH",
"525 423 OFFCURVE",
"440 518 OFFCURVE",
"308 518 CURVE SMOOTH",
"272 518 OFFCURVE",
"247 508 OFFCURVE",
"225 488 CURVE SMOOTH",
"199 464 LINE",
"199 514 LINE",
"63 514 LINE",
"63 -180 LINE",
"204 -180 LINE"
);
},
{
closed = 1;
nodes = (
"223 395 OFFCURVE",
"235 396 OFFCURVE",
"249 396 CURVE SMOOTH",
"332 396 OFFCURVE",
"373 352 OFFCURVE",
"373 262 CURVE SMOOTH",
"373 166 OFFCURVE",
"330 118 OFFCURVE",
"244 118 CURVE SMOOTH",
"228 118 OFFCURVE",
"218 119 OFFCURVE",
"204 122 CURVE",
"204 392 LINE"
);
}
);
width = 564;
}
);
leftMetricsKey = n;
note = p;
rightMetricsKey = o;
unicode = 0070;
},
{
glyphname = q;
lastChange = "2019-02-07 21:08:51 +0000";
layers = (
{
hints = (
{
horizontal = 1;
place = "{-145, 21}";
target = up;
type = BottomGhost;
},
{
horizontal = 1;
place = "{-4, 76}";
type = Stem;
},
{
horizontal = 1;
place = "{420, 77}";
type = Stem;
},
{
place = "{63, 81}";
type = Stem;
},
{
place = "{382, 77}";
type = Stem;
}
);
layerId = "2510F216-D89B-43CC-ACD1-209C5F77631B";
paths = (
{
closed = 1;
nodes = (
"325 497 LINE SMOOTH",
"157 497 OFFCURVE",
"63 427 OFFCURVE",
"63 266 CURVE SMOOTH",
"63 236 LINE SMOOTH",
"63 103 OFFCURVE",
"123 -4 OFFCURVE",
"267 -4 CURVE SMOOTH",
"322 -4 OFFCURVE",
"341 5 OFFCURVE",
"352 16 CURVE SMOOTH",
"382 45 LINE",
"382 -135 LINE SMOOTH",
"382 -139 OFFCURVE",
"387 -145 OFFCURVE",
"392 -145 CURVE SMOOTH",
"449 -145 LINE SMOOTH",
"454 -145 OFFCURVE",
"459 -139 OFFCURVE",
"459 -135 CURVE SMOOTH",
"459 487 LINE SMOOTH",
"459 491 OFFCURVE",
"454 497 OFFCURVE",
"449 497 CURVE SMOOTH"
);
},
{
closed = 1;
nodes = (
"146 420 LINE",
"382 420 LINE",
"382 72 LINE",
"319 72 LINE SMOOTH",
"184 72 OFFCURVE",
"144 120 OFFCURVE",
"144 271 CURVE SMOOTH"
);
}
);
width = 541;
},
{
hints = (
{
horizontal = 1;
place = "{-145, 21}";
target = up;
type = BottomGhost;
},
{
horizontal = 1;
place = "{-4, 122}";
type = Stem;
},
{
horizontal = 1;
place = "{396, 118}";
type = Stem;
},
{
place = "{41, 149}";
type = Stem;
},
{
place = "{342, 141}";
type = Stem;
}
);
layerId = "5839A0EB-CD27-4B31-AA48-098F33CA22E9";
paths = (
{
closed = 1;
nodes = (
"300 514 LINE SMOOTH",
"147 514 OFFCURVE",
"41 434 OFFCURVE",
"41 262 CURVE SMOOTH",
"41 236 LINE SMOOTH",
"41 67 OFFCURVE",
"125 -4 OFFCURVE",
"243 -4 CURVE SMOOTH",
"281 -4 OFFCURVE",
"301 2 OFFCURVE",
"320 20 CURVE SMOOTH",
"342 42 LINE",
"342 -108 LINE SMOOTH",
"342 -128 OFFCURVE",
"360 -145 OFFCURVE",
"379 -145 CURVE SMOOTH",
"446 -145 LINE SMOOTH",
"464 -145 OFFCURVE",
"483 -128 OFFCURVE",
"483 -108 CURVE SMOOTH",
"483 477 LINE SMOOTH",
"483 498 OFFCURVE",
"464 514 OFFCURVE",
"446 514 CURVE SMOOTH"
);
},
{
closed = 1;
nodes = (
"191 396 LINE",
"342 396 LINE",
"342 118 LINE",
"300 118 LINE SMOOTH",
"229 118 OFFCURVE",
"190 148 OFFCURVE",
"190 247 CURVE SMOOTH"
);
}
);
width = 551;
}
);
note = q;
unicode = 0071;
},
{
glyphname = r;
lastChange = "2019-02-07 21:08:51 +0000";
layers = (
{
hints = (
{
horizontal = 1;
place = "{0, 21}";
target = up;
type = BottomGhost;
},
{
horizontal = 1;
place = "{497, -20}";
target = down;
type = TopGhost;
},
{
place = "{84, 77}";
type = Stem;
},
{
horizontal = 1;
place = "{419, 82}";
type = Stem;
}
);
layerId = "2510F216-D89B-43CC-ACD1-209C5F77631B";
paths = (
{
closed = 1;
nodes = (
"94 497 LINE SMOOTH",
"89 497 OFFCURVE",
"84 491 OFFCURVE",
"84 487 CURVE SMOOTH",
"84 10 LINE SMOOTH",
"84 6 OFFCURVE",
"89 0 OFFCURVE",
"94 0 CURVE SMOOTH",
"150 0 LINE SMOOTH",
"155 0 OFFCURVE",
"161 6 OFFCURVE",
"161 10 CURVE SMOOTH",
"161 419 LINE",
"290 419 LINE SMOOTH",
"319 419 OFFCURVE",
"325 421 OFFCURVE",
"334 436 CURVE",
"352 472 LINE",
"354 478 OFFCURVE",
"355 482 OFFCURVE",
"355 485 CURVE SMOOTH",
"355 496 OFFCURVE",
"346 501 OFFCURVE",
"334 501 CURVE SMOOTH",
"276 501 LINE SMOOTH",
"218 501 OFFCURVE",
"193 488 OFFCURVE",
"174 465 CURVE SMOOTH",
"158 446 LINE",
"158 486 LINE SMOOTH",
"158 491 OFFCURVE",
"153 497 OFFCURVE",
"148 497 CURVE SMOOTH"
);
}
);
width = 371;
},
{
hints = (
{
horizontal = 1;
place = "{0, 21}";
target = up;
type = BottomGhost;
},
{
horizontal = 1;
place = "{514, -20}";
target = down;
type = TopGhost;
},
{
place = "{62, 141}";
type = Stem;
},
{
horizontal = 1;
place = "{377, 142}";
type = Stem;
}
);
layerId = "5839A0EB-CD27-4B31-AA48-098F33CA22E9";
paths = (
{
closed = 1;
nodes = (
"99 514 LINE SMOOTH",
"80 514 OFFCURVE",
"62 498 OFFCURVE",
"62 477 CURVE SMOOTH",
"62 37 LINE SMOOTH",
"62 17 OFFCURVE",
"80 0 OFFCURVE",
"99 0 CURVE SMOOTH",
"166 0 LINE SMOOTH",
"185 0 OFFCURVE",
"203 17 OFFCURVE",
"203 37 CURVE SMOOTH",
"203 377 LINE",
"303 377 LINE SMOOTH",
"319 377 OFFCURVE",
"332 380 OFFCURVE",
"344 398 CURVE SMOOTH",
"383 462 LINE SMOOTH",
"389 471 OFFCURVE",
"392 483 OFFCURVE",
"392 492 CURVE SMOOTH",
"392 507 OFFCURVE",
"383 518 OFFCURVE",
"358 518 CURVE SMOOTH",
"293 518 LINE SMOOTH",
"263 518 OFFCURVE",
"243 512 OFFCURVE",
"224 492 CURVE SMOOTH",
"199 467 LINE",
"199 478 LINE SMOOTH",
"199 498 OFFCURVE",
"180 514 OFFCURVE",
"161 514 CURVE SMOOTH"
);
}
);
width = 382;
}
);
note = r;
unicode = 0072;
},
{
color = 3;
glyphname = s;
lastChange = "2019-02-15 13:15:53 +0000";
layers = (
{
background = {
paths = (
{
closed = 1;
nodes = (
"1231 498 OFFCURVE",
"1194 501 OFFCURVE",
"1160 501 CURVE SMOOTH",
"1037 501 OFFCURVE",
"950 440 OFFCURVE",
"950 350 CURVE SMOOTH",
"950 289 OFFCURVE",
"981 253 OFFCURVE",
"1054 228 CURVE SMOOTH",
"1161 192 LINE SMOOTH",
"1198 180 OFFCURVE",
"1211 163 OFFCURVE",
"1211 139 CURVE SMOOTH",
"1211 97 OFFCURVE",
"1165 70 OFFCURVE",
"1092 70 CURVE SMOOTH",
"1038 70 OFFCURVE",
"1000 77 OFFCURVE",
"949 98 CURVE",
"958 15 LINE",
"996 2 OFFCURVE",
"1037 -4 OFFCURVE",
"1089 -4 CURVE SMOOTH",
"1207 -4 OFFCURVE",
"1295 61 OFFCURVE",
"1295 145 CURVE SMOOTH",
"1295 201 OFFCURVE",
"1261 241 OFFCURVE",
"1191 265 CURVE SMOOTH",
"1084 301 LINE SMOOTH",
"1046 314 OFFCURVE",
"1034 328 OFFCURVE",
"1034 356 CURVE SMOOTH",
"1034 397 OFFCURVE",
"1077 427 OFFCURVE",
"1155 427 CURVE SMOOTH",
"1200 427 OFFCURVE",
"1231 423 OFFCURVE",
"1271 410 CURVE",
"1263 489 LINE"
);
},
{
closed = 1;
nodes = (
"725 498 OFFCURVE",
"698 501 OFFCURVE",
"665 501 CURVE SMOOTH",
"535 501 OFFCURVE",
"450 437 OFFCURVE",
"450 348 CURVE SMOOTH",
"450 287 OFFCURVE",
"480 249 OFFCURVE",
"552 226 CURVE SMOOTH",
"656 193 LINE SMOOTH",
"692 182 OFFCURVE",
"705 165 OFFCURVE",
"705 141 CURVE SMOOTH",
"705 100 OFFCURVE",
"660 70 OFFCURVE",
"589 70 CURVE SMOOTH",
"536 70 OFFCURVE",
"499 77 OFFCURVE",
"449 98 CURVE",
"458 15 LINE",
"495 2 OFFCURVE",
"535 -4 OFFCURVE",
"586 -4 CURVE SMOOTH",
"701 -4 OFFCURVE",
"787 66 OFFCURVE",
"787 149 CURVE SMOOTH",
"787 212 OFFCURVE",
"754 243 OFFCURVE",
"685 266 CURVE SMOOTH",
"581 300 LINE SMOOTH",
"544 312 OFFCURVE",
"532 326 OFFCURVE",
"532 354 CURVE SMOOTH",
"532 394 OFFCURVE",
"576 427 OFFCURVE",
"655 427 CURVE SMOOTH",
"696 427 OFFCURVE",
"725 423 OFFCURVE",
"764 410 CURVE",
"756 489 LINE"
);
},
{
closed = 1;
nodes = (
"313 498 OFFCURVE",
"287 501 OFFCURVE",
"256 501 CURVE SMOOTH",
"131 501 OFFCURVE",
"50 437 OFFCURVE",
"50 348 CURVE SMOOTH",
"50 287 OFFCURVE",
"79 250 OFFCURVE",
"148 226 CURVE SMOOTH",
"247 193 LINE SMOOTH",
"282 182 OFFCURVE",
"294 165 OFFCURVE",
"294 141 CURVE SMOOTH",
"294 100 OFFCURVE",
"251 70 OFFCURVE",
"183 70 CURVE SMOOTH",
"132 70 OFFCURVE",
"97 77 OFFCURVE",
"49 98 CURVE",
"58 15 LINE",
"93 2 OFFCURVE",
"131 -4 OFFCURVE",
"180 -4 CURVE SMOOTH",
"290 -4 OFFCURVE",
"373 66 OFFCURVE",
"373 149 CURVE SMOOTH",
"373 212 OFFCURVE",
"341 243 OFFCURVE",
"275 266 CURVE SMOOTH",
"175 300 LINE SMOOTH",
"140 312 OFFCURVE",
"128 326 OFFCURVE",
"128 354 CURVE SMOOTH",
"128 394 OFFCURVE",
"171 427 OFFCURVE",
"246 427 CURVE SMOOTH",
"285 427 OFFCURVE",
"313 423 OFFCURVE",
"351 410 CURVE",
"343 489 LINE"
);
}
);
};
hints = (
{
horizontal = 1;
place = "{-8, 74}";
type = Stem;
},
{
horizontal = 1;
place = "{427, 74}";
type = Stem;
},
{
place = "{50, 69}";
type = Stem;
},
{
place = "{314, 69}";
type = Stem;
}
);
layerId = "2510F216-D89B-43CC-ACD1-209C5F77631B";
paths = (
{
closed = 1;
nodes = (
"313 498 OFFCURVE",
"287 501 OFFCURVE",
"256 501 CURVE SMOOTH",
"131 501 OFFCURVE",
"48 437 OFFCURVE",
"48 351 CURVE SMOOTH",
"48 287 OFFCURVE",
"80 247 OFFCURVE",
"147 226 CURVE SMOOTH",
"247 195 LINE SMOOTH",
"283 184 OFFCURVE",
"294 165 OFFCURVE",
"294 141 CURVE SMOOTH",
"294 100 OFFCURVE",
"251 70 OFFCURVE",
"183 70 CURVE SMOOTH",
"132 70 OFFCURVE",
"97 77 OFFCURVE",
"49 98 CURVE",
"58 15 LINE",
"93 2 OFFCURVE",
"131 -4 OFFCURVE",
"180 -4 CURVE SMOOTH",
"290 -4 OFFCURVE",
"374 66 OFFCURVE",
"374 146 CURVE SMOOTH",
"374 212 OFFCURVE",
"339 246 OFFCURVE",
"275 266 CURVE SMOOTH",
"175 297 LINE SMOOTH",
"140 308 OFFCURVE",
"128 326 OFFCURVE",
"128 352 CURVE SMOOTH",
"128 394 OFFCURVE",
"171 428 OFFCURVE",
"246 428 CURVE SMOOTH",
"285 428 OFFCURVE",
"313 424 OFFCURVE",
"351 411 CURVE",
"343 489 LINE"
);
}
);
width = 409;
},
{
background = {
paths = (
{
closed = 1;
nodes = (
"957 509 OFFCURVE",
"913 515 OFFCURVE",
"875 516 CURVE SMOOTH",
"723 520 OFFCURVE",
"643 443 OFFCURVE",
"640 358 CURVE SMOOTH",
"637 270 OFFCURVE",
"691 227 OFFCURVE",
"755 210 CURVE SMOOTH",
"843 186 LINE SMOOTH",
"865 180 OFFCURVE",
"873 166 OFFCURVE",
"872 155 CURVE SMOOTH",
"870 135 OFFCURVE",
"846 116 OFFCURVE",
"781 117 CURVE SMOOTH",
"734 118 OFFCURVE",
"682 130 OFFCURVE",
"641 147 CURVE",
"646 17 LINE",
"681 6 OFFCURVE",
"725 -1 OFFCURVE",
"767 -2 CURVE SMOOTH",
"919 -6 OFFCURVE",
"1008 71 OFFCURVE",
"1011 156 CURVE SMOOTH",
"1014 244 OFFCURVE",
"960 287 OFFCURVE",
"896 304 CURVE SMOOTH",
"808 328 LINE SMOOTH",
"786 334 OFFCURVE",
"778 348 OFFCURVE",
"779 359 CURVE SMOOTH",
"781 379 OFFCURVE",
"801 398 OFFCURVE",
"864 397 CURVE SMOOTH",
"907 396 OFFCURVE",
"956 385 OFFCURVE",
"997 367 CURVE",
"992 497 LINE"
);
},
{
closed = 1;
nodes = (
"286 -4 OFFCURVE",
"331 5 OFFCURVE",
"374 23 CURVE",
"395 147 LINE",
"347 130 OFFCURVE",
"304 122 OFFCURVE",
"269 122 CURVE SMOOTH",
"176 122 OFFCURVE",
"135 162 OFFCURVE",
"135 252 CURVE SMOOTH",
"135 347 OFFCURVE",
"183 395 OFFCURVE",
"273 395 CURVE SMOOTH",
"309 395 OFFCURVE",
"352 386 OFFCURVE",
"394 370 CURVE",
"385 503 LINE",
"349 513 OFFCURVE",
"305 518 OFFCURVE",
"267 518 CURVE SMOOTH",
"91 518 OFFCURVE",
"-19 416 OFFCURVE",
"-19 253 CURVE SMOOTH",
"-19 241 LINE SMOOTH",
"-19 83 OFFCURVE",
"74 -4 OFFCURVE",
"240 -4 CURVE SMOOTH"
);
}
);
};
hints = (
{
horizontal = 1;
place = "{-8, 125}";
type = Stem;
},
{
horizontal = 1;
place = "{393, 125}";
type = Stem;
},
{
place = "{32, 127}";
type = Stem;
},
{
place = "{275, 127}";
type = Stem;
}
);
layerId = "5839A0EB-CD27-4B31-AA48-098F33CA22E9";
paths = (
{
closed = 1;
nodes = (
"347 513 OFFCURVE",
"306 518 OFFCURVE",
"273 518 CURVE SMOOTH",
"131 518 OFFCURVE",
"40 451 OFFCURVE",
"40 350 CURVE SMOOTH",
"40 281 OFFCURVE",
"72 233 OFFCURVE",
"155 210 CURVE SMOOTH",
"243 186 LINE SMOOTH",
"261 181 OFFCURVE",
"272 170 OFFCURVE",
"272 157 CURVE SMOOTH",
"272 131 OFFCURVE",
"241 116 OFFCURVE",
"190 116 CURVE SMOOTH",
"143 116 OFFCURVE",
"84 128 OFFCURVE",
"38 146 CURVE",
"54 15 LINE",
"93 1 OFFCURVE",
"143 -4 OFFCURVE",
"180 -4 CURVE SMOOTH",
"314 -4 OFFCURVE",
"411 66 OFFCURVE",
"411 166 CURVE SMOOTH",
"411 235 OFFCURVE",
"379 283 OFFCURVE",
"296 306 CURVE SMOOTH",
"208 330 LINE SMOOTH",
"190 335 OFFCURVE",
"179 346 OFFCURVE",
"179 359 CURVE SMOOTH",
"179 384 OFFCURVE",
"208 399 OFFCURVE",
"254 399 CURVE SMOOTH",
"298 399 OFFCURVE",
"347 389 OFFCURVE",
"390 370 CURVE",
"381 503 LINE"
);
}
);
width = 436;
}
);
note = s;
unicode = 0073;
},
{
color = 3;
glyphname = t;
lastChange = "2019-02-15 15:04:20 +0000";
layers = (
{
layerId = "2510F216-D89B-43CC-ACD1-209C5F77631B";
paths = (
{
closed = 1;
nodes = (
"338 70 OFFCURVE",
"316 66 OFFCURVE",
"282 66 CURVE SMOOTH",
"206 66 OFFCURVE",
"167 106 OFFCURVE",
"167 184 CURVE SMOOTH",
"167 610 LINE",
"90 610 LINE",
"90 170 LINE SMOOTH",
"90 62 OFFCURVE",
"161 -4 OFFCURVE",
"278 -4 CURVE SMOOTH",
"309 -4 OFFCURVE",
"343 2 OFFCURVE",
"366 11 CURVE",
"375 84 LINE"
);
},
{
closed = 1;
nodes = (
"344 431 LINE",
"344 497 LINE",
"-10 497 LINE",
"-10 431 LINE"
);
}
);
width = 371;
},
{
layerId = "5839A0EB-CD27-4B31-AA48-098F33CA22E9";
paths = (
{
closed = 1;
nodes = (
"373 118 OFFCURVE",
"345 114 OFFCURVE",
"319 114 CURVE SMOOTH",
"257 114 OFFCURVE",
"222 140 OFFCURVE",
"222 193 CURVE SMOOTH",
"222 610 LINE",
"81 610 LINE",
"81 185 LINE SMOOTH",
"81 51 OFFCURVE",
"174 -4 OFFCURVE",
"305 -4 CURVE SMOOTH",
"329 -4 OFFCURVE",
"366 0 OFFCURVE",
"395 8 CURVE",
"403 130 LINE"
);
},
{
closed = 1;
nodes = (
"378 402 LINE",
"378 514 LINE",
"-10 514 LINE",
"-10 402 LINE"
);
}
);
width = 400;
}
);
unicode = 0074;
},
{
color = 3;
glyphname = u;
lastChange = "2019-02-19 09:28:10 +0000";
layers = (
{
background = {
paths = (
{
closed = 1;
nodes = (
"388 497 LINE SMOOTH",
"383 497 OFFCURVE",
"377 491 OFFCURVE",
"377 487 CURVE SMOOTH",
"377 72 LINE",
"320 72 LINE SMOOTH",
"196 72 OFFCURVE",
"143 94 OFFCURVE",
"143 230 CURVE SMOOTH",
"143 487 LINE SMOOTH",
"143 491 OFFCURVE",
"137 497 OFFCURVE",
"132 497 CURVE SMOOTH",
"76 497 LINE SMOOTH",
"71 497 OFFCURVE",
"66 491 OFFCURVE",
"66 487 CURVE SMOOTH",
"66 205 LINE SMOOTH",
"66 50 OFFCURVE",
"157 -4 OFFCURVE",
"263 -4 CURVE SMOOTH",
"319 -4 OFFCURVE",
"346 9 OFFCURVE",
"365 31 CURVE",
"379 48 LINE",
"379 10 LINE SMOOTH",
"379 6 OFFCURVE",
"384 0 OFFCURVE",
"389 0 CURVE SMOOTH",
"444 0 LINE SMOOTH",
"449 0 OFFCURVE",
"454 6 OFFCURVE",
"454 10 CURVE SMOOTH",
"454 487 LINE SMOOTH",
"454 491 OFFCURVE",
"449 497 OFFCURVE",
"444 497 CURVE SMOOTH"
);
}
);
};
hints = (
{
horizontal = 1;
place = "{-4, 76}";
type = Stem;
},
{
horizontal = 1;
place = "{497, -20}";
target = down;
type = TopGhost;
},
{
place = "{84, 77}";
type = Stem;
},
{
place = "{395, 77}";
type = Stem;
},
{
horizontal = 1;
place = "{0, 21}";
target = up;
type = BottomGhost;
}
);
layerId = "2510F216-D89B-43CC-ACD1-209C5F77631B";
paths = (
{
closed = 1;
nodes = (
"457 0 LINE",
"457 497 LINE",
"380 497 LINE",
"380 79 LINE",
"360 73 OFFCURVE",
"334 69 OFFCURVE",
"309 69 CURVE SMOOTH",
"193 69 OFFCURVE",
"144 113 OFFCURVE",
"144 231 CURVE SMOOTH",
"144 497 LINE",
"68 497 LINE",
"68 206 LINE SMOOTH",
"68 73 OFFCURVE",
"145 -4 OFFCURVE",
"274 -4 CURVE SMOOTH",
"317 -4 OFFCURVE",
"337 3 OFFCURVE",
"362 28 CURVE SMOOTH",
"383 49 LINE",
"383 0 LINE"
);
}
);
width = 527;
},
{
hints = (
{
horizontal = 1;
place = "{-4, 122}";
type = Stem;
},
{
horizontal = 1;
place = "{514, -20}";
target = down;
type = TopGhost;
},
{
place = "{62, 141}";
type = Stem;
},
{
place = "{349, 141}";
type = Stem;
},
{
horizontal = 1;
place = "{0, 21}";
target = up;
type = BottomGhost;
}
);
layerId = "5839A0EB-CD27-4B31-AA48-098F33CA22E9";
paths = (
{
closed = 1;
nodes = (
"501 0 LINE",
"501 514 LINE",
"360 514 LINE",
"360 122 LINE",
"344 119 OFFCURVE",
"333 117 OFFCURVE",
"315 117 CURVE SMOOTH",
"242 117 OFFCURVE",
"200 149 OFFCURVE",
"200 233 CURVE SMOOTH",
"200 514 LINE",
"60 514 LINE",
"60 215 LINE SMOOTH",
"60 69 OFFCURVE",
"137 -4 OFFCURVE",
"255 -4 CURVE SMOOTH",
"292 -4 OFFCURVE",
"317 6 OFFCURVE",
"339 26 CURVE SMOOTH",
"365 50 LINE",
"365 0 LINE"
);
}
);
width = 564;
}
);
leftMetricsKey = "=|n";
note = u;
rightMetricsKey = "=|n";
unicode = 0075;
},
{
color = 3;
glyphname = v;
lastChange = "2019-02-19 10:12:49 +0000";
layers = (
{
background = {
paths = (
{
closed = 1;
nodes = (
"221 24 LINE",
"249 23 LINE",
"101 501 LINE",
"13 501 LINE",
"172 0 LINE",
"292 0 LINE",
"484 498 LINE",
"400 498 LINE"
);
}
);
};
layerId = "2510F216-D89B-43CC-ACD1-209C5F77631B";
paths = (
{
closed = 1;
nodes = (
"222 24 LINE",
"249 23 LINE",
"96 497 LINE",
"8 497 LINE",
"175 0 LINE",
"292 0 LINE",
"459 497 LINE",
"375 497 LINE"
);
}
);
width = 467;
},
{
background = {
paths = (
{
closed = 1;
nodes = (
"312 0 LINE",
"163 508 LINE",
"5 508 LINE",
"164 0 LINE"
);
},
{
closed = 1;
nodes = (
"373 -2 LINE",
"560 508 LINE",
"415 508 LINE",
"270 100 LINE",
"249 59 LINE",
"230 0 LINE"
);
}
);
};
layerId = "5839A0EB-CD27-4B31-AA48-098F33CA22E9";
paths = (
{
closed = 1;
nodes = (
"252 71 LINE",
"294 70 LINE",
"157 508 LINE",
"2 508 LINE",
"171 0 LINE",
"367 0 LINE",
"536 508 LINE",
"388 508 LINE"
);
}
);
width = 538;
}
);
unicode = 0076;
},
{
color = 3;
glyphname = y;
lastChange = "2019-02-19 10:12:49 +0000";
layers = (
{
background = {
paths = (
{
closed = 1;
nodes = (
"922 24 LINE",
"949 23 LINE",
"796 497 LINE",
"708 497 LINE",
"875 0 LINE",
"992 0 LINE",
"1159 497 LINE",
"1075 497 LINE"
);
},
{
closed = 1;
nodes = (
"211 -190 OFFCURVE",
"294 -118 OFFCURVE",
"294 4 CURVE SMOOTH",
"294 496 LINE",
"217 497 LINE",
"217 15 LINE SMOOTH",
"217 -87 OFFCURVE",
"158 -118 OFFCURVE",
"77 -118 CURVE SMOOTH",
"32 -118 OFFCURVE",
"3 -111 OFFCURVE",
"-37 -97 CURVE",
"-28 -173 LINE",
"0 -184 OFFCURVE",
"42 -190 OFFCURVE",
"75 -190 CURVE SMOOTH"
);
}
);
};
layerId = "2510F216-D89B-43CC-ACD1-209C5F77631B";
paths = (
{
closed = 1;
nodes = (
"186 -190 OFFCURVE",
"246 -136 OFFCURVE",
"288 -12 CURVE SMOOTH",
"459 497 LINE",
"375 497 LINE",
"231 45 LINE",
"223 26 LINE",
"211 -9 LINE SMOOTH",
"186 -78 OFFCURVE",
"146 -118 OFFCURVE",
"78 -118 CURVE SMOOTH",
"34 -118 OFFCURVE",
"3 -111 OFFCURVE",
"-37 -97 CURVE",
"-28 -173 LINE",
"-7 -182 OFFCURVE",
"33 -190 OFFCURVE",
"75 -190 CURVE SMOOTH"
);
},
{
closed = 1;
nodes = (
"257 0 LINE",
"96 497 LINE",
"8 497 LINE",
"175 0 LINE"
);
}
);
width = 467;
},
{
background = {
paths = (
{
closed = 1;
nodes = (
"-150 -190 OFFCURVE",
"-45 -112 OFFCURVE",
"-45 23 CURVE SMOOTH",
"-45 514 LINE",
"-186 514 LINE",
"-186 25 LINE SMOOTH",
"-186 -36 OFFCURVE",
"-229 -72 OFFCURVE",
"-305 -72 CURVE SMOOTH",
"-336 -72 OFFCURVE",
"-370 -67 OFFCURVE",
"-407 -52 CURVE",
"-399 -176 LINE",
"-366 -186 OFFCURVE",
"-325 -190 OFFCURVE",
"-298 -190 CURVE SMOOTH"
);
},
{
closed = 1;
nodes = (
"252 71 LINE",
"294 70 LINE",
"157 508 LINE",
"2 508 LINE",
"171 0 LINE",
"367 0 LINE",
"536 508 LINE",
"388 508 LINE"
);
}
);
};
guideLines = (
{
angle = 253.0218;
position = "{388, 508}";
}
);
layerId = "5839A0EB-CD27-4B31-AA48-098F33CA22E9";
paths = (
{
closed = 1;
nodes = (
"186 -190 OFFCURVE",
"309 -174 OFFCURVE",
"369 6 CURVE SMOOTH",
"536 508 LINE",
"388 508 LINE",
"264 100 LINE",
"248 59 LINE",
"238 26 LINE SMOOTH",
"219 -38 OFFCURVE",
"171 -72 OFFCURVE",
"95 -72 CURVE SMOOTH",
"64 -72 OFFCURVE",
"30 -67 OFFCURVE",
"-7 -52 CURVE",
"1 -176 LINE",
"34 -186 OFFCURVE",
"75 -190 OFFCURVE",
"102 -190 CURVE SMOOTH"
);
},
{
closed = 1;
nodes = (
"317 0 LINE",
"157 508 LINE",
"2 508 LINE",
"171 0 LINE"
);
}
);
width = 538;
}
);
unicode = 0079;
},
{
color = 3;
glyphname = k.ss01;
lastChange = "2019-02-15 23:17:32 +0000";
layers = (
{
background = {
paths = (
{
closed = 1;
nodes = (
"445 -6 OFFCURVE",
"469 -2 OFFCURVE",
"488 6 CURVE",
"500 78 LINE",
"481 70 OFFCURVE",
"456 66 OFFCURVE",
"436 66 CURVE SMOOTH",
"387 68 OFFCURVE",
"354 89 OFFCURVE",
"312 146 CURVE SMOOTH",
"195 297 LINE",
"197 238 LINE",
"460 497 LINE",
"361 497 LINE",
"135 273 LINE",
"134 248 LINE",
"274 74 LINE SMOOTH",
"316 19 OFFCURVE",
"360 -4 OFFCURVE",
"421 -6 CURVE SMOOTH"
);
},
{
closed = 1;
nodes = (
"147 0 LINE",
"147 720 LINE",
"70 720 LINE",
"70 0 LINE"
);
}
);
};
guideLines = (
{
angle = 128.8201;
position = "{300, 161}";
}
);
hints = (
{
horizontal = 1;
place = "{0, 21}";
target = up;
type = BottomGhost;
},
{
horizontal = 1;
place = "{497, -20}";
target = down;
type = TopGhost;
},
{
horizontal = 1;
place = "{671, -20}";
target = down;
type = TopGhost;
},
{
place = "{84, 77}";
type = Stem;
}
);
layerId = "2510F216-D89B-43CC-ACD1-209C5F77631B";
paths = (
{
closed = 1;
nodes = (
"445 -6 OFFCURVE",
"469 -2 OFFCURVE",
"488 6 CURVE",
"500 78 LINE",
"481 70 OFFCURVE",
"456 66 OFFCURVE",
"436 66 CURVE SMOOTH",
"387 68 OFFCURVE",
"358 90 OFFCURVE",
"313 146 CURVE SMOOTH",
"196 292 LINE",
"197 238 LINE",
"460 497 LINE",
"361 497 LINE",
"135 273 LINE",
"134 248 LINE",
"274 74 LINE SMOOTH",
"316 19 OFFCURVE",
"360 -4 OFFCURVE",
"421 -6 CURVE SMOOTH"
);
},
{
closed = 1;
nodes = (
"147 0 LINE",
"147 720 LINE",
"70 720 LINE",
"70 0 LINE"
);
}
);
width = 485;
},
{
background = {
paths = (
{
closed = 1;
nodes = (
"505 -6 OFFCURVE",
"541 -2 OFFCURVE",
"567 9 CURVE",
"586 123 LINE",
"569 118 OFFCURVE",
"541 114 OFFCURVE",
"523 114 CURVE SMOOTH",
"479 114 OFFCURVE",
"449 132 OFFCURVE",
"407 185 CURVE SMOOTH",
"322 291 LINE",
"312 232 LINE",
"556 497 LINE",
"385 497 LINE",
"180 277 LINE",
"176 246 LINE",
"314 74 LINE SMOOTH",
"359 18 OFFCURVE",
"412 -6 OFFCURVE",
"479 -6 CURVE SMOOTH"
);
},
{
closed = 1;
nodes = (
"204 0 LINE",
"204 720 LINE",
"63 719 LINE",
"63 0 LINE"
);
}
);
};
guideLines = (
{
angle = -51.259;
position = "{427, 160}";
}
);
hints = (
{
horizontal = 1;
place = "{0, 21}";
target = up;
type = BottomGhost;
},
{
horizontal = 1;
place = "{514, -20}";
target = down;
type = TopGhost;
},
{
horizontal = 1;
place = "{671, -20}";
target = down;
type = TopGhost;
},
{
place = "{62, 141}";
type = Stem;
}
);
layerId = "5839A0EB-CD27-4B31-AA48-098F33CA22E9";
paths = (
{
closed = 1;
nodes = (
"508 -4 OFFCURVE",
"544 0 OFFCURVE",
"570 11 CURVE",
"589 125 LINE",
"572 120 OFFCURVE",
"544 116 OFFCURVE",
"526 116 CURVE SMOOTH",
"482 116 OFFCURVE",
"452 134 OFFCURVE",
"410 187 CURVE SMOOTH",
"322 300 LINE",
"312 241 LINE",
"560 514 LINE",
"389 514 LINE",
"180 286 LINE",
"176 255 LINE",
"317 76 LINE SMOOTH",
"361 20 OFFCURVE",
"415 -4 OFFCURVE",
"482 -4 CURVE SMOOTH"
);
},
{
closed = 1;
nodes = (
"204 0 LINE",
"204 720 LINE",
"63 719 LINE",
"63 0 LINE"
);
}
);
width = 558;
}
);
leftMetricsKey = h;
note = k;
},
{
color = 3;
glyphname = l.ss01;
lastChange = "2019-02-15 09:05:14 +0000";
layers = (
{
hints = (
{
horizontal = 1;
place = "{0, 21}";
target = up;
type = BottomGhost;
},
{
horizontal = 1;
place = "{671, -20}";
target = down;
type = TopGhost;
},
{
place = "{84, 77}";
type = Stem;
}
);
layerId = "2510F216-D89B-43CC-ACD1-209C5F77631B";
paths = (
{
closed = 1;
nodes = (
"70 720 LINE",
"70 0 LINE",
"147 0 LINE",
"147 720 LINE"
);
}
);
width = 217;
},
{
hints = (
{
horizontal = 1;
place = "{0, 21}";
target = up;
type = BottomGhost;
},
{
horizontal = 1;
place = "{671, -20}";
target = down;
type = TopGhost;
},
{
place = "{62, 141}";
type = Stem;
}
);
layerId = "5839A0EB-CD27-4B31-AA48-098F33CA22E9";
paths = (
{
closed = 1;
nodes = (
"63 719 LINE",
"63 0 LINE",
"204 0 LINE",
"204 720 LINE"
);
}
);
width = 267;
}
);
note = l;
},
{
glyphname = period;
lastChange = "2019-02-07 21:08:51 +0000";
layers = (
{
layerId = "2510F216-D89B-43CC-ACD1-209C5F77631B";
paths = (
{
closed = 1;
nodes = (
"53 72 LINE",
"50 68 OFFCURVE",
"50 60 OFFCURVE",
"53 56 CURVE SMOOTH",
"113 -4 LINE SMOOTH",
"117 -7 OFFCURVE",
"125 -7 OFFCURVE",
"129 -4 CURVE",
"190 56 LINE",
"193 60 OFFCURVE",
"194 68 OFFCURVE",
"190 72 CURVE",
"129 133 LINE",
"125 137 OFFCURVE",
"117 137 OFFCURVE",
"113 133 CURVE SMOOTH"
);
}
);
width = 244;
},
{
layerId = "5839A0EB-CD27-4B31-AA48-098F33CA22E9";
paths = (
{
closed = 1;
nodes = (
"51 118 LINE SMOOTH",
"36 102 OFFCURVE",
"36 74 OFFCURVE",
"51 58 CURVE SMOOTH",
"106 3 LINE SMOOTH",
"122 -12 OFFCURVE",
"149 -13 OFFCURVE",
"166 3 CURVE SMOOTH",
"220 58 LINE SMOOTH",
"237 74 OFFCURVE",
"236 102 OFFCURVE",
"220 118 CURVE SMOOTH",
"166 172 LINE SMOOTH",
"151 188 OFFCURVE",
"123 189 OFFCURVE",
"106 172 CURVE SMOOTH"
);
}
);
width = 265;
}
);
note = period;
unicode = 002E;
},
